<svg id="svg5" height="512" viewBox="0 0 8.4666662 8.4666662" width="512" xmlns="http://www.w3.org/2000/svg" xmlns:svg="http://www.w3.org/2000/svg"><linearGradient id="linearGradient2739"><stop id="stop2737" offset="0" stop-color="#0ecc24"/></linearGradient><linearGradient id="linearGradient2667"><stop id="stop2665" offset="0"/></linearGradient><g id="layer1"><g id="g13170" transform="translate(.222 .183)"><g id="g45573" stroke-width=".262" transform="matrix(1.009 0 0 1.009 -.273 -.328)"><g id="g29397" transform="translate(.844 -.248)"><g id="g284819" stroke-width=".978" transform="matrix(.948 -.357 .357 .95 4.97 -1.037)"><g id="g245110" stroke-width="1.106" transform="matrix(.816 .338 -.339 .817 -4.528 -1.585)"><g id="g4452" transform="translate(-.001 -.006)"><g id="g14503" transform="translate(-1.016 1.669)"><g id="g18538" transform="translate(.005 .147)"><g id="g2358" transform="translate(.606 1.339)"><g id="g12606" transform="translate(0 .001)"><path id="path8875" d="m3.3236921-1.186255c-1.8495821.46090471-3.18894246 2.16032075-3.12278434 4.1420078.07612816 2.280349 1.98480114 4.0649721 4.26667464 3.9892247 1.9752885-.0655707 3.576364-1.5032709 3.9216497-3.3675628-.6145112 1.0082391-1.7046293 1.7286744-2.9552737 1.7701901-1.9764572.0656097-3.6350316-1.4858733-3.7010136-3.4622298-.041844-1.25347433.6186747-2.3917684 1.5907473-3.07163zm1.6378444.53548759c-.3208406.01336854-.6190073.20995026-.7473145.52773797-.1751477.43389989.0345671.92296752.4691555 1.09832379.4232843.17075625.8978979-.02174409 1.0841732-.43274583-.1326887.05881625-.2522278.07995705-.3578548.07645298-.1877789-.00622928-.3827773-.12322656-.3908194-.12921304-.1589602-.11870875-.2544176-.27047012-.2851826-.42702718-.030764-.156557-.0006262-.3105278.059804-.44220459.033678-.0733898.103942-.17428374.2420057-.27067497-.00329-.00015308-.00668-.00079579-.00997-.00091196-.021552-.00075012-.042605-.00062981-.063993.00026144zm-.0741268 1.89310651c-.019901.00142-.027205.00364-.01285.00602l.02219.645622c.1286173-.00131.192399-.00435.3178413-.00932l-.0222309-.6468563s-.2338736-.0005655-.3049517.00453zm.1546591.8541942c-.4170651.0243353-.7439788.3561029-.7666748.7668067.2509459-.0975122.5223842-.155181.8066628-.1646175.2844374-.0094429.5592835.0304741.8164979.1113567-.050889-.4151231-.4083772-.7284209-.8353823-.7142467-.00706.0002345-.014093.000292-.021105.0007008zm.0096.9204784c-.2912265.01519-.5658267.088304-.8133037.2076806-.019264.01622-.042099.027622-.066622.033258-.4213686.2217452-.7570499.5803415-.9522975 1.0138787.5942368.4969174 1.3669606.7853896 2.2038908.7576072.6457066-.0214347 1.2470298-.245292 1.748964-.6032097-.1956846-.546404-.6078218-.9872914-1.1307671-1.2235151-.0027113-.0000695-.05839-.0244091-.0920307-.0391661-.2644054-.104767-.5541703-.1579411-.8568652-.1478922-.013761.0004535-.027281.0006458-.040966.00136z" stroke-linecap="round" stroke-linejoin="round" stroke-width="1.106" paint-order="stroke fill markers"/></g></g></g></g></g></g></g></g></g></g></g></svg>