<?xml version="1.0" encoding="UTF-8"?>
<svg xmlns="http://www.w3.org/2000/svg" viewBox="0 0 529.94 543.81">
  <defs>
    <style>
      .cls-1 {
        fill: #0a4369;
      }

      .cls-2 {
        isolation: isolate;
      }

      .cls-3 {
        mix-blend-mode: difference;
        opacity: .4;
      }
    </style>
  </defs>
  <g class="cls-2">
    <g id="Layer_2" data-name="Layer 2">
      <g id="_456" data-name="456">
        <g class="cls-3">
          <g>
            <path class="cls-1" d="M442.02,224.52c.29-.94,.64-1.88,1.42-2.89l1.85-2.36c-.54-.69-.77-1.42-1.18-2.28-.47-1.46-.35-3,.57-4.18l17.05-21.79c.79-1.02,2.26-1.51,3.75-1.69,.93,.18,1.87,.37,2.67,.72l1.72-2.2c.93-1.18,2.05-1.94,2.92-2.35,.87-.41,1.76-.53,2.49-.77,2.1-.27,3.76-.33,5.13-.35,1.53,.11,2.93,.39,3.93,1.17,.84,.65,.97,1.85,.32,2.7l-25.83,33.01,36.31,20.96c.93,.53,1.25,1.7,.72,2.62-.64,1.1-1.83,1.89-3.21,2.56-1.27,.49-2.84,1.06-4.89,1.59-.77,.05-1.64,.28-2.6,.21-.96-.06-2.29-.34-3.59-1.09l-2.42-1.39c-.61,.63-1.4,1.15-2.2,1.67-1.46,.38-3,.48-4.12-.17l-23.97-13.83c-1.3-.75-1.99-2.13-2.1-3.66,.05-.95,0-1.71,.24-2.56l-2.6-1.5c-1.1-.63-1.78-1.38-2.4-2.14M312.43,94.98c-.67-.72-1.31-1.5-1.79-2.67l-1.13-2.79c-.87,.12-1.62-.04-2.57-.12-1.5-.32-2.77-1.19-3.33-2.59l-10.36-25.65c-.49-1.19-.18-2.7,.4-4.09,.63-.72,1.25-1.43,1.96-1.95l-1.04-2.58c-.56-1.39-.65-2.75-.58-3.7,.08-.96,.42-1.79,.58-2.54,.81-1.95,1.6-3.42,2.26-4.61,.87-1.27,1.8-2.34,2.98-2.82,.99-.4,2.1,.08,2.5,1.08l15.69,38.86,36.31-20.94c.93-.54,2.1-.23,2.62,.69,.64,1.1,.72,2.53,.61,4.06-.21,1.35-.5,2.99-1.06,5.02-.34,.69-.58,1.56-1.12,2.36-.53,.8-1.44,1.81-2.73,2.56l-2.42,1.39c.24,.84,.29,1.79,.34,2.75-.4,1.45-1.09,2.83-2.21,3.48l-23.97,13.82c-1.3,.75-2.84,.66-4.22-.01-.8-.52-1.49-.86-2.1-1.49l-2.61,1.5c-1.1,.64-2.08,.85-3.05,1m-177.05,47.38c-.96,.22-1.95,.39-3.21,.21l-2.97-.42c-.33,.81-.84,1.38-1.39,2.16-1.03,1.14-2.42,1.8-3.91,1.59l-27.41-3.86c-1.27-.18-2.43-1.2-3.34-2.4-.3-.9-.61-1.8-.7-2.67l-2.76-.39c-1.49-.21-2.7-.81-3.49-1.35s-1.34-1.26-1.92-1.77c-1.28-1.68-2.17-3.09-2.86-4.26-.68-1.38-1.13-2.73-.96-4,.15-1.05,1.12-1.77,2.18-1.62l41.52,5.85v-41.9c0-1.07,.86-1.93,1.92-1.93,1.28,0,2.55,.64,3.83,1.5,1.06,.86,2.34,1.93,3.82,3.43,.42,.64,1.06,1.29,1.49,2.14,.42,.86,.85,2.15,.85,3.64v2.79c.85,.21,1.7,.64,2.55,1.07,1.06,1.07,1.91,2.36,1.91,3.65v27.66c-.01,1.5-.86,2.79-2.13,3.65-.85,.43-1.49,.86-2.34,1.07v3c0,1.27-.3,2.24-.66,3.15m-47.46,176.93c-.29,.94-.64,1.88-1.43,2.88l-1.85,2.37c.54,.69,.77,1.42,1.18,2.28,.48,1.46,.36,3-.57,4.18l-17.05,21.79c-.79,1.02-2.26,1.51-3.75,1.7-.94-.19-1.87-.37-2.68-.72l-1.71,2.19c-.93,1.18-2.06,1.93-2.92,2.35-.86,.42-1.76,.53-2.49,.77-2.1,.27-3.76,.33-5.13,.35-1.53-.11-2.93-.39-3.93-1.17-.84-.65-.98-1.85-.32-2.7l25.83-33.01-36.31-20.96c-.93-.54-1.24-1.7-.72-2.62,.64-1.1,1.83-1.89,3.21-2.56,1.28-.49,2.85-1.05,4.89-1.59,.77-.05,1.65-.27,2.6-.21,.96,.06,2.29,.34,3.59,1.09l2.42,1.39c.61-.63,1.4-1.15,2.2-1.67,1.46-.38,3-.47,4.12,.17l23.96,13.83c1.31,.75,1.99,2.13,2.1,3.67-.06,.94,0,1.71-.25,2.56l2.61,1.5c1.1,.64,1.78,1.38,2.4,2.14m129.58,129.54c.67,.72,1.31,1.5,1.79,2.67l1.13,2.79c.86-.12,1.62,.04,2.57,.12,1.51,.32,2.77,1.19,3.33,2.58l10.36,25.65c.48,1.19,.18,2.7-.41,4.1-.63,.71-1.25,1.43-1.96,1.95l1.04,2.58c.57,1.39,.65,2.74,.58,3.7-.08,.96-.43,1.79-.58,2.54-.82,1.95-1.6,3.42-2.26,4.61-.86,1.27-1.8,2.35-2.99,2.82-.98,.4-2.09-.08-2.5-1.07l-15.69-38.85-36.31,20.95c-.93,.54-2.1,.23-2.63-.69-.64-1.1-.72-2.53-.61-4.06,.21-1.35,.5-2.99,1.06-5.03,.34-.69,.58-1.56,1.11-2.36,.53-.8,1.44-1.81,2.74-2.56l2.42-1.4c-.24-.84-.29-1.79-.34-2.74,.4-1.46,1.09-2.83,2.2-3.48l23.98-13.82c1.3-.75,2.84-.66,4.22,.01,.8,.52,1.48,.86,2.1,1.49l2.6-1.5c1.1-.63,2.09-.85,3.05-1.01m177.05-47.39c.96-.22,1.95-.39,3.21-.21l2.97,.42c.33-.81,.85-1.38,1.39-2.16,1.03-1.14,2.42-1.8,3.91-1.59l27.41,3.86c1.27,.18,2.44,1.2,3.35,2.4,.31,.9,.61,1.8,.7,2.67l2.77,.39c1.49,.21,2.7,.81,3.49,1.35,.79,.54,1.34,1.26,1.92,1.77,1.28,1.68,2.16,3.09,2.87,4.26,.67,1.38,1.13,2.73,.95,3.99-.14,1.05-1.12,1.77-2.18,1.62l-41.52-5.84v41.9c-.01,1.07-.86,1.93-1.92,1.93-1.27,0-2.55-.64-3.82-1.5-1.07-.86-2.34-1.93-3.83-3.43-.42-.64-1.06-1.29-1.48-2.14-.42-.86-.85-2.14-.85-3.64v-2.79c-.85-.21-1.7-.64-2.54-1.07-1.07-1.07-1.91-2.36-1.91-3.65v-27.66c0-1.5,.85-2.78,2.12-3.65,.85-.43,1.5-.86,2.34-1.07v-3.01c0-1.27,.31-2.23,.66-3.15m49.86-84.27l2.61-1.5c-.24-.84-.19-1.61-.24-2.56,.1-1.53,.8-2.91,2.1-3.66l23.97-13.83c1.12-.64,2.65-.55,4.11-.17,.8,.52,1.59,1.04,2.21,1.67l2.42-1.4c1.3-.75,2.62-1.02,3.58-1.09,.96-.06,1.83,.17,2.6,.22,2.04,.54,3.61,1.1,4.89,1.59,1.38,.68,2.58,1.46,3.21,2.56,.53,.92,.21,2.08-.72,2.62l-36.31,20.95,25.82,33.01c.66,.85,.52,2.04-.31,2.7-1,.79-2.41,1.07-3.94,1.17-1.37-.02-3.04-.08-5.13-.35-.73-.25-1.63-.36-2.5-.78-.86-.42-1.99-1.16-2.91-2.35l-1.72-2.2c-.8,.35-1.74,.54-2.67,.72-1.5-.19-2.95-.68-3.75-1.69l-17.04-21.8c-.93-1.18-1.05-2.72-.58-4.18,.41-.86,.65-1.59,1.18-2.28l-1.84-2.37c-.78-1-1.14-1.95-1.43-2.88,.62-.76,1.3-1.51,2.4-2.14m-50.49-177.95v-3c-.85-.21-1.49-.64-2.34-1.07-1.27-.86-2.12-2.14-2.12-3.64v-27.66c0-1.29,.85-2.57,1.91-3.65,.85-.43,1.7-.86,2.55-1.07v-2.79c0-1.5,.42-2.79,.85-3.64,.42-.86,1.07-1.5,1.49-2.14,1.49-1.5,2.76-2.57,3.83-3.43,1.27-.86,2.55-1.5,3.82-1.5,1.06,0,1.91,.86,1.91,1.93v41.9l41.52-5.84c1.07-.15,2.03,.57,2.18,1.63,.18,1.26-.29,2.61-.96,3.99-.7,1.17-1.59,2.58-2.87,4.26-.58,.51-1.12,1.23-1.91,1.77-.79,.54-2.01,1.14-3.49,1.35l-2.76,.39c-.1,.87-.4,1.77-.71,2.67-.92,1.2-2.07,2.22-3.35,2.4l-27.41,3.85c-1.49,.21-2.88-.45-3.91-1.59-.54-.78-1.06-1.35-1.39-2.16l-2.97,.42c-1.26,.18-2.26,.01-3.21-.21-.35-.91-.65-1.88-.65-3.15m-179.44-45.27l-2.6-1.5c-.61,.63-1.3,.96-2.1,1.49-1.38,.67-2.92,.76-4.22,.01l-23.97-13.83c-1.11-.64-1.8-2.02-2.2-3.47,.06-.95,.11-1.9,.35-2.74l-2.42-1.4c-1.3-.75-2.2-1.76-2.73-2.56-.53-.8-.77-1.67-1.12-2.36-.56-2.04-.85-3.68-1.06-5.02-.11-1.53-.03-2.96,.61-4.06,.53-.92,1.7-1.23,2.63-.69l36.31,20.95,15.69-38.86c.41-1,1.52-1.47,2.5-1.08,1.19,.48,2.13,1.55,2.99,2.82,.66,1.19,1.44,2.66,2.26,4.61,.15,.76,.5,1.59,.57,2.54,.07,.95-.01,2.31-.58,3.7l-1.04,2.59c.7,.52,1.33,1.23,1.96,1.95,.58,1.39,.89,2.9,.41,4.1l-10.37,25.65c-.56,1.39-1.83,2.27-3.33,2.59-.95,.08-1.7,.24-2.57,.12l-1.12,2.78c-.48,1.18-1.12,1.96-1.79,2.67-.97-.15-1.96-.37-3.06-1.01M85.53,226.63l-2.6,1.5c.24,.84,.18,1.61,.24,2.56-.11,1.53-.8,2.91-2.1,3.66l-23.98,13.83c-1.11,.64-2.65,.55-4.11,.17-.8-.52-1.59-1.04-2.2-1.67l-2.42,1.39c-1.3,.75-2.63,1.03-3.59,1.09-.96,.06-1.83-.17-2.6-.21-2.05-.54-3.61-1.11-4.89-1.59-1.38-.68-2.58-1.45-3.21-2.56-.53-.92-.21-2.08,.72-2.62l36.31-20.95-25.81-33.01c-.66-.85-.52-2.05,.31-2.7,1.01-.78,2.41-1.06,3.94-1.17,1.36,.02,3.03,.08,5.13,.35,.73,.25,1.63,.36,2.49,.78,.87,.41,1.99,1.16,2.92,2.35l1.72,2.2c.8-.35,1.74-.54,2.67-.72,1.5,.19,2.96,.68,3.75,1.69l17.05,21.8c.92,1.18,1.05,2.72,.57,4.18-.41,.86-.64,1.59-1.18,2.29l1.85,2.36c.78,1,1.13,1.95,1.43,2.89-.62,.76-1.31,1.51-2.41,2.14m50.49,177.95v3.01c.85,.21,1.49,.64,2.34,1.07,1.28,.86,2.13,2.14,2.13,3.65v27.66c0,1.29-.85,2.57-1.91,3.64-.85,.43-1.7,.86-2.55,1.07v2.79c0,1.5-.42,2.79-.85,3.65-.42,.86-1.06,1.5-1.49,2.14-1.48,1.5-2.76,2.57-3.82,3.43-1.28,.86-2.55,1.5-3.83,1.5-1.06,0-1.91-.86-1.91-1.93v-41.9l-41.52,5.84c-1.06,.15-2.03-.57-2.18-1.62-.18-1.26,.28-2.61,.95-4,.7-1.17,1.59-2.58,2.87-4.26,.58-.51,1.13-1.23,1.92-1.77,.79-.54,2-1.14,3.49-1.35l2.76-.39c.09-.87,.4-1.77,.7-2.67,.92-1.2,2.07-2.22,3.35-2.4l27.41-3.86c1.48-.21,2.87,.45,3.91,1.59,.54,.79,1.05,1.35,1.39,2.16l2.97-.42c1.26-.18,2.26,0,3.21,.21,.35,.92,.65,1.88,.65,3.15m179.44,45.28l2.6,1.5c.61-.63,1.3-.97,2.1-1.49,1.38-.67,2.92-.76,4.22-.01l23.97,13.83c1.12,.64,1.8,2.02,2.21,3.48-.05,.95-.11,1.9-.34,2.74l2.41,1.39c1.3,.75,2.2,1.76,2.74,2.56,.53,.8,.77,1.67,1.11,2.36,.56,2.03,.85,3.67,1.07,5.02,.1,1.53,.02,2.96-.61,4.06-.53,.92-1.7,1.22-2.63,.69l-36.31-20.95-15.7,38.85c-.4,1-1.51,1.47-2.5,1.08-1.18-.48-2.12-1.55-2.98-2.82-.66-1.19-1.44-2.66-2.26-4.61-.15-.76-.5-1.59-.58-2.54-.07-.95,.02-2.31,.58-3.7l1.05-2.59c-.71-.52-1.34-1.23-1.96-1.95-.58-1.39-.89-2.9-.41-4.1l10.36-25.65c.57-1.39,1.83-2.27,3.34-2.58,.95-.08,1.7-.24,2.57-.12l1.13-2.78c.47-1.18,1.12-1.96,1.79-2.68,.97,.16,1.95,.38,3.05,1.01m137.66-227.49l26.82-34.28c-1.07-.01-2.56,.17-4.06,.37-.6,.08-1.03,.29-1.46,.49-.43,.21-1,.58-1.52,1.26l-2.78,3.55c-.66,.84-1.86,1-2.69,.34l-.34-.26c-.5-.39-1.13-.62-1.6-.71-.3,.04-.6,.08-.73,.25l-17.05,21.79s-.1,.47,.11,.9c.07,.6,.61,1.29,1.11,1.68,.84,.65,.98,1.86,.32,2.7l-2.47,3.16,3.47,2c.93,.54,1.25,1.7,.71,2.62-.32,.55-.56,1.39-.4,1.98-.03,.47,.24,.87,.24,.87l23.97,13.84c.18,.11,.48,.03,.77-.05,.39-.26,.9-.7,1.22-1.26l.21-.37c.53-.92,1.7-1.22,2.63-.69l3.9,2.25c.74,.43,1.41,.57,1.88,.6,.48,.03,.96,.06,1.54-.09,1.46-.38,2.92-.76,3.9-1.18l-37.7-21.76ZM316.11,84.29l-16.3-40.35c-.54,.91-1.13,2.3-1.71,3.7-.24,.56-.27,1.03-.31,1.51-.03,.48,.01,1.15,.33,1.95l1.68,4.18c.4,.99-.06,2.11-1.05,2.5l-.4,.16c-.59,.24-1.1,.68-1.41,1.03-.11,.28-.23,.55-.15,.76l10.36,25.65s.36,.31,.83,.35c.56,.24,1.43,.12,2.02-.12,.99-.39,2.09,.08,2.49,1.08l1.51,3.71,3.47-2c.93-.54,2.1-.23,2.63,.69,.32,.55,.93,1.18,1.51,1.33,.39,.26,.88,.23,.88,.23l23.97-13.83c.19-.11,.27-.4,.35-.69-.03-.48-.16-1.13-.48-1.68l-.21-.37c-.53-.92-.21-2.08,.72-2.62l3.9-2.25c.75-.43,1.2-.94,1.47-1.33,.26-.4,.53-.8,.69-1.38,.4-1.45,.79-2.91,.93-3.97l-37.71,21.75Zm-188.15,49.54l-43.11-6.07c.52,.93,1.44,2.13,2.35,3.33,.37,.48,.76,.75,1.16,1.02,.4,.27,1,.57,1.86,.69l4.46,.63c1.06,.15,1.79,1.11,1.64,2.16l-.06,.42c-.09,.63,.03,1.29,.19,1.74,.18,.24,.36,.48,.58,.51l27.41,3.86s.45-.15,.73-.54c.48-.36,.81-1.17,.9-1.8,.15-1.05,1.12-1.77,2.18-1.62l3.97,.56v-4.01c0-1.07,.85-1.93,1.91-1.93,.64,0,1.48-.21,1.91-.64,.42-.21,.63-.64,.63-.64v-27.66c0-.21-.21-.43-.42-.64-.42-.21-1.06-.43-1.7-.43h-.42c-1.07,0-1.91-.86-1.91-1.93v-4.51c0-.86-.21-1.5-.42-1.93-.21-.43-.42-.86-.85-1.29-1.06-1.07-2.12-2.14-2.97-2.78v43.51Zm-51.16,187.61l-26.82,34.28c1.06,.02,2.57-.17,4.06-.37,.6-.07,1.03-.28,1.46-.49,.43-.21,1-.58,1.53-1.26l2.77-3.55c.66-.84,1.86-1,2.7-.34l.33,.26c.5,.39,1.14,.62,1.6,.71,.3-.03,.6-.07,.73-.24l17.05-21.79s.1-.47-.1-.9c-.07-.6-.61-1.29-1.11-1.69-.84-.65-.98-1.85-.31-2.7l2.47-3.16-3.47-2c-.93-.54-1.25-1.7-.72-2.62,.31-.55,.56-1.4,.4-1.98,.03-.48-.24-.87-.24-.87l-23.97-13.84c-.19-.11-.47-.03-.77,.05-.4,.26-.91,.7-1.23,1.26l-.21,.37c-.53,.92-1.7,1.23-2.63,.69l-3.9-2.25c-.74-.43-1.4-.57-1.89-.6-.47-.03-.96-.06-1.54,.09-1.46,.38-2.92,.76-3.9,1.18l37.7,21.76Zm137,138.08l16.3,40.35c.55-.91,1.13-2.3,1.71-3.7,.23-.56,.27-1.03,.31-1.51,.03-.48-.01-1.16-.33-1.95l-1.68-4.18c-.4-1,.06-2.11,1.05-2.5l.39-.16c.59-.24,1.11-.68,1.41-1.04,.12-.28,.24-.55,.16-.76l-10.36-25.65s-.35-.32-.83-.36c-.55-.24-1.42-.12-2.01,.12-.98,.4-2.1-.08-2.5-1.07l-1.5-3.72-3.48,2c-.93,.54-2.1,.23-2.62-.69-.32-.55-.93-1.18-1.52-1.33-.4-.26-.88-.23-.88-.23l-23.97,13.83c-.19,.11-.26,.4-.34,.69,.02,.48,.16,1.13,.48,1.69l.21,.37c.53,.92,.21,2.08-.72,2.62l-3.91,2.25c-.74,.43-1.19,.93-1.46,1.33-.27,.4-.53,.8-.69,1.38-.39,1.45-.8,2.91-.93,3.97l37.71-21.75Zm188.15-49.54l43.12,6.07c-.52-.93-1.43-2.13-2.35-3.33-.37-.48-.76-.75-1.16-1.02-.39-.27-1-.57-1.86-.69l-4.46-.63c-1.07-.15-1.8-1.11-1.65-2.16l.06-.42c.09-.63-.03-1.29-.19-1.74-.18-.24-.37-.48-.58-.51l-27.41-3.86s-.46,.15-.73,.54c-.49,.36-.81,1.17-.91,1.8-.15,1.05-1.12,1.77-2.18,1.62l-3.97-.56v4.01c0,1.07-.85,1.93-1.91,1.93-.64,0-1.49,.21-1.92,.64-.42,.22-.64,.65-.64,.65v27.66c0,.21,.21,.43,.42,.65,.42,.21,1.06,.43,1.7,.43h.43c1.06,0,1.91,.86,1.91,1.93v4.5c0,.86,.21,1.5,.42,1.93,.22,.43,.42,.85,.85,1.29,1.07,1.07,2.13,2.14,2.98,2.79v-43.52Zm88.85-110.26c-.98-.41-2.45-.8-3.91-1.18-.58-.15-1.06-.12-1.54-.09-.48,.03-1.14,.17-1.88,.6l-3.9,2.25c-.93,.54-2.1,.23-2.63-.69l-.21-.37c-.32-.55-.83-1-1.22-1.26-.29-.07-.58-.15-.77-.05l-23.97,13.83s-.27,.4-.24,.88c-.16,.58,.08,1.42,.4,1.97,.53,.92,.21,2.08-.72,2.62l-3.47,2,2.47,3.16c.66,.84,.52,2.04-.31,2.7-.5,.39-1.04,1.09-1.11,1.69-.2,.43-.11,.9-.11,.9l17.05,21.8c.13,.17,.44,.21,.73,.25,.46-.09,1.1-.31,1.6-.71l.33-.26c.84-.65,2.04-.5,2.7,.34l2.77,3.55c.53,.68,1.09,1.05,1.52,1.26,.43,.21,.87,.41,1.47,.49,1.5,.19,3,.38,4.06,.37l-26.81-34.28,37.71-21.76Zm-88.82-209.38c-.85,.64-1.91,1.71-2.97,2.79-.42,.43-.64,.86-.85,1.29-.21,.43-.42,1.07-.42,1.93v4.51c0,1.07-.85,1.93-1.91,1.93h-.42c-.64,0-1.28,.21-1.7,.43-.21,.21-.42,.43-.42,.64v27.66s.21,.43,.64,.64c.42,.43,1.27,.64,1.91,.64,1.06,0,1.91,.86,1.91,1.93v4.01l3.97-.56c1.07-.15,2.03,.57,2.18,1.63,.09,.63,.42,1.44,.9,1.8,.27,.39,.73,.54,.73,.54l27.41-3.85c.21-.03,.4-.27,.58-.51,.15-.45,.27-1.11,.19-1.74l-.06-.42c-.14-1.05,.58-2.01,1.65-2.16l4.46-.63c.85-.12,1.46-.42,1.85-.69,.4-.27,.79-.54,1.16-1.02,.92-1.2,1.83-2.4,2.35-3.33l-43.11,6.07v-43.51Zm-225.84-27.82c.13,1.06,.53,2.51,.93,3.97,.15,.58,.42,.98,.69,1.38,.26,.4,.72,.9,1.46,1.33l3.9,2.25c.93,.54,1.25,1.7,.72,2.62l-.21,.37c-.32,.56-.45,1.21-.48,1.69,.08,.29,.16,.58,.34,.69l23.97,13.83s.48,.03,.88-.23c.58-.15,1.19-.78,1.51-1.33,.53-.92,1.7-1.22,2.63-.69l3.47,2.01,1.5-3.72c.41-1,1.51-1.47,2.5-1.07,.59,.24,1.45,.36,2.01,.12,.48-.04,.83-.36,.83-.36l10.36-25.65c.09-.2-.03-.48-.15-.76-.31-.36-.83-.8-1.42-1.03l-.39-.16c-.98-.4-1.45-1.51-1.05-2.5l1.68-4.18c.32-.8,.37-1.47,.33-1.95-.04-.48-.08-.96-.31-1.51-.58-1.39-1.16-2.78-1.71-3.7l-16.3,40.35-37.71-21.76ZM39.13,244.09c.98,.41,2.44,.8,3.9,1.18,.58,.15,1.06,.12,1.54,.09,.48-.03,1.15-.17,1.89-.6l3.9-2.25c.93-.54,2.1-.23,2.63,.69l.21,.37c.32,.56,.82,1,1.22,1.26,.3,.07,.59,.15,.77,.05l23.97-13.83s.26-.4,.23-.87c.16-.58-.07-1.43-.39-1.98-.53-.92-.21-2.08,.72-2.62l3.48-2-2.48-3.16c-.66-.84-.52-2.04,.32-2.7,.5-.39,1.04-1.08,1.11-1.68,.21-.43,.11-.9,.11-.9l-17.05-21.8c-.13-.17-.43-.21-.73-.24-.47,.09-1.1,.31-1.6,.71l-.34,.26c-.84,.65-2.03,.5-2.69-.35l-2.78-3.55c-.53-.67-1.09-1.05-1.52-1.26-.43-.21-.86-.41-1.46-.49-1.5-.19-3-.38-4.06-.36l26.81,34.28-37.7,21.75Zm88.82,209.38c.85-.64,1.91-1.71,2.98-2.79,.42-.43,.63-.86,.85-1.29,.21-.43,.42-1.07,.42-1.93v-4.5c0-1.07,.85-1.93,1.91-1.93h.42c.64,0,1.27-.21,1.7-.43,.22-.21,.42-.43,.42-.64v-27.66s-.21-.43-.64-.65c-.42-.43-1.27-.64-1.91-.64-1.06,0-1.91-.86-1.91-1.93v-4.01l-3.98,.56c-1.06,.15-2.03-.57-2.18-1.62-.09-.63-.42-1.44-.91-1.8-.27-.39-.72-.54-.72-.54l-27.41,3.86c-.21,.03-.4,.27-.58,.51-.15,.45-.28,1.11-.18,1.74l.06,.42c.15,1.05-.58,2.01-1.65,2.16l-4.46,.63c-.85,.12-1.46,.42-1.86,.69-.4,.27-.79,.54-1.16,1.02-.92,1.2-1.83,2.4-2.35,3.33l43.11-6.06v43.51Zm225.84,27.82c-.13-1.06-.53-2.51-.93-3.97-.16-.58-.42-.98-.69-1.38-.26-.4-.72-.9-1.46-1.33l-3.91-2.25c-.93-.54-1.25-1.7-.71-2.62l.21-.37c.32-.55,.45-1.21,.48-1.69-.08-.29-.16-.58-.35-.69l-23.96-13.83s-.48-.03-.88,.23c-.58,.16-1.2,.78-1.52,1.33-.53,.92-1.7,1.23-2.62,.69l-3.48-2.01-1.5,3.72c-.4,.99-1.51,1.47-2.5,1.07-.59-.24-1.46-.36-2.02-.12-.47,.04-.83,.36-.83,.36l-10.37,25.65c-.08,.2,.03,.48,.15,.76,.31,.36,.83,.8,1.42,1.04l.4,.16c.99,.4,1.45,1.51,1.05,2.5l-1.69,4.18c-.32,.79-.37,1.47-.33,1.95,.03,.48,.07,.95,.3,1.51,.58,1.39,1.17,2.78,1.71,3.7l16.3-40.34,37.71,21.76Z"/>
            <path class="cls-1" d="M500.48,192.16c-.84-.65-.81-1.72-.15-2.56,.66-.84,1.69-1.13,2.53-.47l10.71,8.37c.84,.66,.98,1.85,.31,2.7-.66,.84-1.86,1-2.69,.34l-10.71-8.37Z"/>
            <path class="cls-1" d="M313.62,28.2c-.98,.39-1.9-.16-2.3-1.15-.41-1-.13-2.03,.85-2.43l12.61-5.09c.99-.39,2.09,.08,2.49,1.08,.4,.99-.06,2.11-1.05,2.5l-12.61,5.09Z"/>
            <path class="cls-1" d="M78.12,107.94c-.15,1.05-1.09,1.56-2.15,1.41-1.06-.15-1.83-.9-1.68-1.95l1.9-13.46c.15-1.05,1.12-1.77,2.18-1.62,1.06,.15,1.79,1.11,1.64,2.16l-1.9,13.46Z"/>
            <path class="cls-1" d="M29.46,351.65c.84,.66,.81,1.72,.15,2.57-.66,.84-1.69,1.13-2.53,.48l-10.71-8.37c-.84-.66-.98-1.85-.32-2.7,.66-.84,1.86-1,2.7-.34l10.71,8.37Z"/>
            <path class="cls-1" d="M216.31,515.62c.99-.4,1.9,.16,2.3,1.15,.4,1,.13,2.03-.85,2.43l-12.61,5.09c-.98,.39-2.1-.08-2.5-1.07-.4-1,.07-2.11,1.05-2.51l12.61-5.08Z"/>
            <path class="cls-1" d="M451.82,435.87c.15-1.05,1.09-1.56,2.15-1.41,1.06,.15,1.82,.9,1.67,1.95l-1.9,13.46c-.15,1.05-1.12,1.77-2.18,1.62-1.06-.15-1.79-1.11-1.64-2.16l1.9-13.46Z"/>
            <path class="cls-1" d="M500.46,351.69c-.84,.66-.81,1.72-.15,2.57,.66,.84,1.69,1.13,2.53,.48l10.72-8.37c.84-.65,.97-1.85,.32-2.7-.66-.84-1.86-1-2.7-.34l-10.71,8.37Z"/>
            <path class="cls-1" d="M451.85,107.98c.14,1.05,1.08,1.56,2.15,1.41,1.06-.15,1.82-.9,1.67-1.95l-1.89-13.46c-.15-1.05-1.12-1.77-2.18-1.62-1.06,.15-1.79,1.11-1.64,2.16l1.9,13.46Z"/>
            <path class="cls-1" d="M216.36,28.19c.99,.4,1.9-.15,2.3-1.15,.41-1,.14-2.03-.85-2.43l-12.61-5.09c-.98-.4-2.09,.08-2.49,1.08-.4,1,.06,2.11,1.05,2.5l12.61,5.09Z"/>
            <path class="cls-1" d="M29.48,192.12c.84-.65,.81-1.72,.15-2.57-.66-.84-1.69-1.13-2.53-.48l-10.71,8.37c-.84,.65-.98,1.85-.32,2.69,.66,.85,1.86,1,2.7,.35l10.71-8.37Z"/>
            <path class="cls-1" d="M78.09,435.84c-.15-1.05-1.09-1.56-2.15-1.41-1.07,.15-1.83,.9-1.68,1.95l1.9,13.46c.15,1.05,1.12,1.77,2.18,1.62,1.06-.15,1.79-1.11,1.65-2.16l-1.9-13.46Z"/>
            <path class="cls-1" d="M313.58,515.62c-.99-.4-1.9,.16-2.3,1.15-.4,.99-.13,2.03,.85,2.42l12.61,5.09c.99,.4,2.1-.08,2.5-1.07,.4-1-.07-2.11-1.05-2.51l-12.6-5.09Z"/>
            <path class="cls-1" d="M508.34,232.67c-.53,.92-.11,1.9,.82,2.44,.93,.54,1.99,.41,2.52-.51l6.8-11.77c.53-.92,.21-2.08-.72-2.62-.93-.54-2.1-.23-2.63,.69l-6.8,11.77Z"/>
            <path class="cls-1" d="M352.66,41.64c.53,.92,1.59,1.04,2.52,.51,.93-.54,1.35-1.52,.83-2.44l-6.8-11.77c-.53-.92-1.7-1.22-2.63-.69-.93,.54-1.25,1.7-.72,2.62l6.8,11.77Z"/>
            <path class="cls-1" d="M109.28,80.88c1.07,0,1.7-.86,1.7-1.93s-.64-1.93-1.7-1.93h-13.59c-1.06,0-1.91,.86-1.91,1.93s.85,1.93,1.91,1.93h13.59Z"/>
            <path class="cls-1" d="M21.59,311.14c.53-.92,.11-1.9-.82-2.44-.92-.54-1.99-.41-2.51,.5l-6.81,11.77c-.53,.92-.21,2.09,.72,2.62,.93,.54,2.1,.23,2.63-.69l6.8-11.77Z"/>
            <path class="cls-1" d="M177.28,502.17c-.53-.92-1.59-1.04-2.53-.51-.93,.54-1.35,1.52-.82,2.44l6.79,11.77c.53,.92,1.7,1.23,2.63,.69,.93-.54,1.25-1.7,.71-2.62l-6.79-11.77Z"/>
            <path class="cls-1" d="M420.65,462.93c-1.06,0-1.7,.86-1.7,1.93s.64,1.93,1.7,1.93h13.6c1.06,0,1.91-.86,1.91-1.93s-.85-1.93-1.91-1.93h-13.6Z"/>
            <path class="cls-1" d="M508.34,311.18c-.53-.92-.11-1.9,.82-2.44,.93-.53,1.99-.41,2.53,.51l6.8,11.77c.53,.92,.21,2.09-.72,2.62-.93,.54-2.1,.23-2.63-.69l-6.8-11.77Z"/>
            <path class="cls-1" d="M420.69,80.91c-1.06,0-1.7-.86-1.7-1.93s.64-1.93,1.7-1.93h13.6c1.06,0,1.91,.86,1.91,1.93s-.85,1.93-1.91,1.93h-13.6Z"/>
            <path class="cls-1" d="M177.32,41.63c-.53,.92-1.59,1.05-2.52,.51-.93-.54-1.36-1.52-.82-2.44l6.8-11.77c.53-.92,1.7-1.23,2.63-.69,.93,.54,1.24,1.7,.72,2.62l-6.8,11.77Z"/>
            <path class="cls-1" d="M21.61,232.63c.53,.92,.1,1.9-.82,2.44-.93,.54-1.99,.41-2.52-.51l-6.81-11.77c-.53-.92-.21-2.08,.72-2.62,.93-.54,2.1-.23,2.63,.69l6.8,11.77Z"/>
            <path class="cls-1" d="M109.25,462.91c1.07,0,1.7,.86,1.7,1.93s-.64,1.93-1.7,1.93h-13.59c-1.06,0-1.91-.86-1.91-1.93s.85-1.93,1.91-1.93h13.59Z"/>
            <path class="cls-1" d="M352.62,502.19c.53-.92,1.59-1.04,2.52-.5,.93,.53,1.35,1.51,.82,2.43l-6.8,11.77c-.53,.92-1.7,1.22-2.62,.69-.93-.54-1.25-1.7-.72-2.62l6.8-11.77Z"/>
            <path class="cls-1" d="M505.11,203.13c-.84-.66-.97-1.85-.32-2.7,.66-.84,1.86-1,2.7-.34l5.36,4.18c.84,.66,.98,1.85,.32,2.7-.67,.85-1.86,1-2.7,.35l-5.36-4.18Z"/>
            <path class="cls-1" d="M325.44,29.68c-.98,.4-2.1-.08-2.5-1.07-.4-1,.06-2.11,1.05-2.51l6.31-2.54c.99-.39,2.09,.08,2.49,1.07,.41,.99-.06,2.11-1.05,2.5l-6.3,2.54Z"/>
            <path class="cls-1" d="M85.31,98.45c-.15,1.05-1.12,1.77-2.18,1.62-1.06-.15-1.8-1.11-1.64-2.16l.94-6.73c.15-1.05,1.12-1.77,2.18-1.62,1.06,.15,1.79,1.11,1.64,2.16l-.95,6.73Z"/>
            <path class="cls-1" d="M24.83,340.68c.84,.66,.98,1.85,.31,2.7-.66,.84-1.86,1-2.69,.34l-5.36-4.18c-.84-.66-.98-1.85-.31-2.7,.66-.84,1.86-1,2.69-.34l5.36,4.18Z"/>
            <path class="cls-1" d="M204.5,514.14c.98-.4,2.09,.08,2.49,1.08,.4,.99-.06,2.11-1.05,2.5l-6.3,2.54c-.98,.4-2.1-.08-2.5-1.07-.4-.99,.06-2.11,1.05-2.51l6.31-2.54Z"/>
            <path class="cls-1" d="M444.63,445.36c.15-1.05,1.12-1.77,2.18-1.62,1.06,.15,1.79,1.11,1.64,2.16l-.95,6.73c-.14,1.05-1.11,1.77-2.18,1.62-1.06-.15-1.79-1.11-1.64-2.16l.94-6.73Z"/>
            <path class="cls-1" d="M505.09,340.72c-.84,.66-.98,1.85-.32,2.7,.66,.85,1.86,1,2.69,.35l5.36-4.18c.84-.65,.98-1.85,.32-2.7-.66-.85-1.86-1-2.7-.34l-5.36,4.18Z"/>
            <path class="cls-1" d="M444.66,98.48c.14,1.05,1.12,1.77,2.18,1.62,1.07-.15,1.79-1.11,1.64-2.16l-.95-6.73c-.15-1.05-1.12-1.77-2.18-1.62-1.07,.15-1.8,1.11-1.65,2.16l.95,6.73Z"/>
            <path class="cls-1" d="M204.54,29.66c.98,.4,2.1-.08,2.5-1.07,.4-1-.06-2.11-1.05-2.5l-6.31-2.54c-.98-.4-2.1,.08-2.5,1.07-.4,1,.07,2.11,1.05,2.51l6.3,2.54Z"/>
            <path class="cls-1" d="M24.84,203.09c.84-.66,.98-1.85,.32-2.7-.66-.85-1.86-1-2.7-.35l-5.36,4.18c-.84,.66-.98,1.85-.32,2.7,.66,.84,1.86,1,2.7,.35l5.36-4.18Z"/>
            <path class="cls-1" d="M85.28,445.33c-.15-1.05-1.12-1.77-2.18-1.62-1.06,.15-1.79,1.11-1.64,2.16l.94,6.73c.15,1.05,1.12,1.77,2.18,1.62,1.06-.15,1.79-1.11,1.64-2.16l-.95-6.73Z"/>
            <path class="cls-1" d="M325.4,514.15c-.98-.4-2.09,.08-2.49,1.07-.41,1,.06,2.11,1.05,2.5l6.3,2.54c.99,.4,2.1-.08,2.5-1.07,.4-1-.06-2.11-1.05-2.51l-6.31-2.54Z"/>
            <path class="cls-1" d="M508.53,220.77c-.53,.92-.21,2.08,.72,2.62,.93,.54,2.1,.23,2.63-.69l3.4-5.88c.53-.92,.21-2.08-.72-2.62-.93-.54-2.1-.23-2.63,.69l-3.4,5.89Z"/>
            <path class="cls-1" d="M342.43,35.53c.53,.92,1.7,1.23,2.63,.69,.93-.54,1.25-1.7,.72-2.62l-3.4-5.88c-.53-.92-1.7-1.23-2.63-.69-.93,.54-1.25,1.7-.71,2.62l3.4,5.88Z"/>
            <path class="cls-1" d="M98.87,86.67c1.06,0,1.91-.86,1.91-1.93s-.85-1.93-1.91-1.93h-6.8c-1.06,0-1.91,.86-1.91,1.93s.85,1.93,1.91,1.93h6.8Z"/>
            <path class="cls-1" d="M21.4,323.05c.53-.92,.21-2.08-.72-2.62-.93-.54-2.1-.23-2.63,.69l-3.4,5.88c-.53,.92-.21,2.08,.72,2.62,.93,.54,2.1,.23,2.63-.69l3.4-5.88Z"/>
            <path class="cls-1" d="M187.5,508.29c-.53-.92-1.7-1.23-2.63-.69-.93,.54-1.24,1.7-.72,2.62l3.4,5.88c.53,.92,1.7,1.23,2.62,.69,.93-.54,1.25-1.7,.72-2.62l-3.4-5.88Z"/>
            <path class="cls-1" d="M431.07,457.14c-1.07,0-1.91,.86-1.91,1.93s.85,1.93,1.91,1.93h6.79c1.07,0,1.91-.85,1.91-1.93s-.85-1.93-1.91-1.93h-6.79Z"/>
            <path class="cls-1" d="M508.52,323.09c-.53-.92-.21-2.09,.72-2.62,.93-.54,2.1-.23,2.63,.69l3.4,5.88c.53,.92,.21,2.08-.72,2.62-.93,.53-2.1,.23-2.63-.69l-3.4-5.88Z"/>
            <path class="cls-1" d="M431.1,86.7c-1.06,0-1.91-.86-1.91-1.93s.85-1.93,1.91-1.93h6.8c1.07,0,1.91,.86,1.91,1.93s-.85,1.93-1.91,1.93h-6.8Z"/>
            <path class="cls-1" d="M187.55,35.52c-.53,.92-1.7,1.23-2.63,.69-.93-.54-1.25-1.7-.72-2.62l3.4-5.88c.53-.92,1.7-1.23,2.63-.69,.93,.54,1.25,1.7,.72,2.62l-3.4,5.89Z"/>
            <path class="cls-1" d="M21.42,220.72c.53,.92,.21,2.08-.71,2.62-.93,.54-2.1,.23-2.63-.69l-3.4-5.88c-.53-.92-.22-2.08,.71-2.62,.93-.54,2.1-.23,2.63,.69l3.4,5.88Z"/>
            <path class="cls-1" d="M98.84,457.12c1.06,0,1.91,.86,1.91,1.93s-.85,1.93-1.91,1.93h-6.8c-1.06,0-1.91-.86-1.91-1.93s.85-1.93,1.91-1.93h6.8Z"/>
            <path class="cls-1" d="M342.39,508.3c.53-.92,1.7-1.23,2.63-.69,.93,.54,1.25,1.7,.72,2.62l-3.4,5.88c-.53,.92-1.7,1.23-2.62,.69-.93-.54-1.25-1.7-.72-2.62l3.4-5.88Z"/>
            <path class="cls-1" d="M458.76,160.11l28.23,22.06c.84,.66,.98,1.85,.32,2.7l-28.47,36.39,40.03,23.1c.93,.54,1.25,1.7,.72,2.62l-14.42,24.95,14.41,24.95c.53,.92,.21,2.08-.72,2.62l-40.03,23.1,28.46,36.39c.66,.85,.52,2.04-.32,2.7l-28.23,22.05-5,35.46c-.15,1.05-1.12,1.77-2.18,1.62l-45.76-6.44v46.19c-.01,1.07-.86,1.93-1.92,1.93h-28.82s-14.41,24.94-14.41,24.94c-.53,.92-1.7,1.23-2.63,.69l-40.03-23.09-17.3,42.83c-.41,.99-1.52,1.47-2.5,1.07l-33.23-13.41-33.23,13.4c-.99,.4-2.1-.08-2.5-1.07l-17.3-42.83-40.03,23.09c-.93,.54-2.1,.23-2.63-.69l-14.41-24.95h-28.83c-1.06,0-1.91-.86-1.91-1.93v-46.2l-45.77,6.44c-1.06,.15-2.03-.57-2.18-1.62l-5-35.47-28.23-22.06c-.84-.66-.97-1.85-.31-2.7l28.47-36.39-40.02-23.1c-.93-.54-1.25-1.7-.72-2.62l14.42-24.94-14.41-24.95c-.53-.92-.21-2.09,.72-2.62l40.02-23.1-28.46-36.39c-.66-.84-.52-2.04,.32-2.7l28.23-22.05,5-35.47c.15-1.05,1.12-1.77,2.18-1.62l45.77,6.45v-46.19c0-1.07,.86-1.93,1.92-1.93h28.83s14.41-24.94,14.41-24.94c.53-.92,1.7-1.23,2.63-.69l40.03,23.1,17.3-42.83c.4-1,1.51-1.47,2.5-1.07l33.23,13.41,33.23-13.41c.99-.4,2.09,.08,2.49,1.07l17.3,42.83,40.03-23.09c.93-.54,2.1-.23,2.63,.69l14.41,24.95h28.82c1.06,0,1.91,.86,1.91,1.93v46.19l45.76-6.43c1.07-.15,2.03,.57,2.18,1.62l4.99,35.47Zm-57.84,111.81l25.66-44.4-35.95-28.1-6.36-45.17h-51.3l-25.64-44.41-42.33,17.08-42.32-17.08-25.65,44.41h-51.3s-6.37,45.16-6.37,45.16l-35.97,28.09,25.66,44.41-25.66,44.41,35.96,28.1,6.36,45.17h51.3l25.65,44.41,42.32-17.07,42.33,17.08,25.65-44.41h51.31s6.36-45.16,6.36-45.16l35.96-28.09-25.65-44.41Zm-6.69-74.58l37.37,29.2-26.22,45.38,26.22,45.38-37.38,29.2-6.62,46.95h-52.44s-26.22,45.38-26.22,45.38l-43.99-17.76-43.99,17.75-26.21-45.39h-52.43l-6.61-46.95-37.37-29.2,26.22-45.38-26.22-45.38,37.38-29.2,6.62-46.95h52.43s26.22-45.37,26.22-45.37l43.99,17.75,43.99-17.75,26.21,45.39h52.44l6.6,46.95Zm86.72,74.59l14.51-25.12-42.35-24.44,30.12-38.5-27.88-21.79-4.94-35.03-48.42,6.81v-48.87h-29.02l-14.5-25.12-42.36,24.43-18.31-45.32-32.82,13.24-32.82-13.24-18.31,45.32-42.35-24.44-14.51,25.12h-29.02s-.01,48.87-.01,48.87l-48.42-6.82-4.94,35.03-27.89,21.78,30.11,38.51-42.35,24.44,14.51,25.12-14.51,25.11,42.35,24.44-30.12,38.5,27.88,21.79,4.93,35.03,48.42-6.81v48.87h29.02l14.51,25.12,42.35-24.43,18.3,45.32,32.83-13.24,32.82,13.25,18.31-45.32,42.35,24.44,14.51-25.12h29.02s0-48.87,0-48.87l48.42,6.82,4.94-35.03,27.89-21.78-30.11-38.51,42.35-24.44-14.51-25.11Z"/>
            <path class="cls-1" d="M508.45,271.93l5.93-10.27c.53-.92,1.7-1.23,2.45-.8l8.55,4.94c2.62,1.51,3.94,3.61,4.56,6.13-.62,2.52-1.94,4.62-4.57,6.13l-8.55,4.93c-.74,.43-1.91,.12-2.44-.8l-5.93-10.27Zm-121.76,210.73h11.87c1.06,0,1.91,.86,1.91,1.72v9.87c0,3.02-1.16,5.21-3.04,7.01-2.5,.72-4.98,.63-7.6-.88l-8.55-4.93c-.74-.43-1.06-1.59-.53-2.51l5.93-10.27Zm-243.48-.02l5.93,10.27c.53,.92,.21,2.08-.53,2.51l-8.55,4.93c-2.62,1.51-5.1,1.61-7.6,.88-1.88-1.8-3.04-3.99-3.04-7.02v-9.86c0-.86,.85-1.72,1.91-1.72h11.87ZM21.49,271.89l-5.94,10.27c-.53,.92-1.7,1.23-2.44,.8l-8.55-4.93c-2.62-1.51-3.94-3.61-4.56-6.13,.62-2.52,1.94-4.62,4.56-6.13l8.55-4.93c.74-.43,1.91-.12,2.44,.8l5.94,10.27ZM143.25,61.16h-11.87c-1.06,0-1.91-.86-1.91-1.72v-9.86c0-3.03,1.16-5.22,3.04-7.02,2.5-.72,4.98-.63,7.6,.88l8.55,4.93c.74,.43,1.06,1.59,.53,2.51l-5.93,10.27Zm243.48,.02l-5.93-10.27c-.53-.92-.21-2.09,.53-2.51l8.55-4.93c2.62-1.51,5.1-1.61,7.6-.88,1.88,1.8,3.04,3.99,3.04,7.02v9.86c0,.86-.85,1.72-1.91,1.72h-11.87Zm113.87,74.79l1.87,3.31c1.35,2.42,2.57,5,3.14,7.36,.65,2.96,.37,5.73-1.74,8.43l-6.08,7.77c-.53,.68-1.72,.83-2.56,.17l-17.64-13.78-3.12-22.15c-.15-1.05,.58-2.01,1.43-2.13l9.77-1.37c3.4-.48,5.95,.67,8.19,2.71,1.75,1.69,3.38,4.03,4.8,6.4l1.93,3.28Zm-.03,271.91l-1.92,3.28c-1.42,2.38-3.05,4.72-4.81,6.4-2.24,2.04-4.78,3.19-8.18,2.7l-9.78-1.38c-.85-.12-1.58-1.08-1.43-2.13l3.12-22.15,17.64-13.78c.84-.65,2.03-.5,2.57,.17l6.08,7.77c2.11,2.7,2.39,5.48,1.75,8.44-.58,2.36-1.8,4.94-3.15,7.36l-1.88,3.31Zm-235.63,135.93l-3.8-.04c-2.77-.04-5.61-.28-7.94-.96-2.89-.92-5.16-2.54-6.44-5.73l-3.69-9.15c-.32-.8,.14-1.91,1.13-2.31l20.75-8.37,20.75,8.37c.99,.4,1.46,1.51,1.13,2.31l-3.69,9.15c-1.28,3.18-3.55,4.81-6.44,5.73-2.34,.68-5.18,.92-7.95,.95l-3.81,.04ZM29.34,407.84l-1.87-3.31c-1.35-2.41-2.57-4.99-3.14-7.36-.65-2.96-.37-5.73,1.75-8.44l6.08-7.77c.53-.67,1.72-.83,2.57-.17l17.63,13.78,3.12,22.15c.15,1.05-.58,2.01-1.44,2.13l-9.77,1.37c-3.4,.48-5.94-.66-8.18-2.71-1.75-1.68-3.39-4.03-4.8-6.4l-1.94-3.28Zm.02-271.91l1.94-3.28c1.41-2.37,3.05-4.71,4.8-6.4,2.24-2.04,4.78-3.19,8.19-2.71l9.77,1.38c.85,.12,1.58,1.08,1.43,2.13l-3.12,22.15-17.64,13.77c-.84,.65-2.03,.5-2.56-.17l-6.08-7.77c-2.11-2.7-2.4-5.48-1.74-8.43,.58-2.36,1.8-4.94,3.14-7.36l1.87-3.31ZM264.99,0l3.81,.03c2.76,.04,5.61,.28,7.95,.96,2.89,.92,5.15,2.55,6.44,5.73l3.69,9.15c.32,.8-.15,1.91-1.13,2.3l-20.76,8.37-20.75-8.38c-.98-.4-1.45-1.51-1.13-2.31l3.69-9.15c1.29-3.18,3.55-4.81,6.44-5.72,2.34-.68,5.18-.92,7.94-.96l3.81-.03Zm261.02,271.93c-.44-1.13-1.26-2.08-2.55-2.83l-6.87-3.97-3.93,6.79,3.92,6.8,6.88-3.97c1.29-.75,2.11-1.7,2.55-2.83m-130.54,225.93c.76-.94,1.17-2.13,1.17-3.62v-7.93h-7.85s-3.92,6.79-3.92,6.79l6.87,3.97c1.3,.75,2.53,.98,3.73,.8m-261.05-.02c1.19,.19,2.42-.05,3.72-.8l6.88-3.97-3.93-6.79h-7.84v7.93c0,1.5,.41,2.68,1.17,3.62M3.92,271.88c.44,1.13,1.25,2.08,2.55,2.83l6.88,3.97,3.92-6.79-3.92-6.79-6.88,3.97c-1.29,.75-2.11,1.7-2.55,2.82M134.47,45.95c-.76,.94-1.17,2.12-1.17,3.62v7.93h7.85l3.92-6.79-6.87-3.97c-1.29-.75-2.53-.98-3.72-.8m261.05,.02c-1.2-.18-2.43,.05-3.73,.8l-6.87,3.96,3.92,6.8h7.85v-7.93c0-1.5-.41-2.68-1.17-3.62m85.49,101.3l14.97,11.7,4.89-6.25c1.32-1.69,1.58-3.39,1.07-5.15-.38-1.93-1.56-4.21-2.74-6.49l-1.83-3.23-1.88-3.19c-1.39-2.16-2.78-4.33-4.26-5.62-1.27-1.32-2.87-1.95-5-1.65l-7.86,1.1,2.65,18.8Zm-.02,249.3l-2.65,18.8,7.86,1.1c2.12,.3,3.73-.33,5-1.65,1.48-1.29,2.87-3.46,4.26-5.62l1.89-3.19,1.83-3.23c1.18-2.28,2.36-4.57,2.74-6.5,.51-1.76,.25-3.47-1.07-5.15l-4.89-6.25-14.97,11.69Zm-216.03,124.63l-17.62,7.11,2.97,7.36c.8,1.99,2.15,3.06,3.94,3.5,1.86,.64,4.43,.76,6.99,.88l3.71,.04,3.72-.04c2.57-.12,5.13-.24,7-.88,1.78-.44,3.13-1.51,3.93-3.5l2.97-7.36-17.61-7.11ZM48.93,396.54l-14.96-11.7-4.89,6.25c-1.32,1.69-1.58,3.4-1.07,5.16,.38,1.93,1.56,4.21,2.74,6.49l1.82,3.23,1.89,3.2c1.39,2.16,2.77,4.33,4.26,5.62,1.27,1.32,2.88,1.95,5,1.66l7.86-1.11-2.65-18.8Zm.02-249.3l2.65-18.8-7.86-1.11c-2.12-.3-3.73,.33-5.01,1.65-1.48,1.29-2.87,3.45-4.26,5.62l-1.89,3.2-1.82,3.23c-1.18,2.28-2.36,4.57-2.74,6.49-.51,1.76-.25,3.47,1.07,5.16l4.89,6.25,14.97-11.69ZM264.99,22.61l17.62-7.11-2.97-7.36c-.8-1.99-2.15-3.06-3.93-3.5-1.86-.64-4.43-.76-7-.88l-3.71-.04-3.72,.04c-2.57,.12-5.13,.24-6.99,.88-1.78,.44-3.13,1.51-3.94,3.5l-2.97,7.36,17.61,7.11Z"/>
            <path class="cls-1" d="M373.23,271.92l.26-1.83,21-36.34-26.91-21.03-4.76-33.81h-41.99l-1.72-.69-1.46-1.14-20.99-36.35-31.68,12.78-31.67-12.78-21,36.34-1.46,1.14-1.72,.69h-41.99s-4.77,33.8-4.77,33.8l-26.91,21.02,21,36.34,.26,1.84-.26,1.83-21,36.34,26.91,21.03,4.76,33.81h41.99l1.72,.69,1.46,1.14,20.99,36.35,31.67-12.78,31.67,12.79,20.99-36.34,1.46-1.14,1.72-.7h42s4.76-33.8,4.76-33.8l26.91-21.02-20.99-36.35-.26-1.83Zm-2.25-61.17l28.25,22.07-22.24,38.47-.09,.62,.09,.62,22.22,38.47-28.25,22.07-5,35.48h-44.45s-.58,.23-.58,.23l-.5,.39-22.23,38.48-33.24-13.42-33.25,13.42-22.22-38.48-.5-.38-.58-.24h-44.45l-5-35.49-28.24-22.07,22.24-38.47,.09-.62-.09-.63-22.23-38.47,28.25-22.07,5.01-35.49h44.45s.58-.23,.58-.23l.49-.39,22.23-38.47,33.25,13.42,33.25-13.41,22.22,38.48,.5,.38,.58,.24h44.45l5,35.49Zm-99.16,61.16l-3.43-5.94h-6.85l-3.43,5.93,3.43,5.94h6.85l3.43-5.93Zm80.36-50.32l10.54,18.31-3.06,21.93c-.11,1.16-.25,2.29-.33,3.37-.61,.9-1.19,1.88-1.82,2.86l-2.23,3.85,2.23,3.85c.62,.97,1.21,1.96,1.82,2.86,.08,1.08,.22,2.22,.33,3.37l3.05,21.94-10.54,18.31-10.6,18.28-20.53,8.32c-1.05,.48-2.11,.92-3.09,1.4-1.08-.08-2.22-.09-3.38-.14h-4.45s-2.22,3.84-2.22,3.84c-.53,1.03-1.09,2.03-1.57,3-.9,.61-1.81,1.3-2.75,1.97l-17.48,13.61-21.13,.03-21.14-.03-17.48-13.62c-.95-.67-1.86-1.36-2.75-1.97-.48-.98-1.04-1.97-1.57-3l-2.22-3.85h-4.45c-1.16,.06-2.3,.07-3.38,.15-.98-.47-2.03-.92-3.09-1.4l-20.53-8.33-10.6-18.28-10.54-18.31,3.06-21.94c.11-1.16,.26-2.29,.33-3.37,.61-.9,1.19-1.88,1.82-2.86l2.23-3.85-2.23-3.85c-.62-.98-1.21-1.96-1.82-2.86-.07-1.08-.22-2.22-.33-3.37l-3.05-21.93,10.54-18.31,10.6-18.28,20.53-8.32c1.05-.48,2.11-.93,3.09-1.4,1.08,.07,2.22,.09,3.38,.14h4.45s2.22-3.85,2.22-3.85c.53-1.03,1.09-2.03,1.57-3,.9-.61,1.81-1.3,2.76-1.97l17.48-13.61,21.14-.03,21.13,.03,17.48,13.61c.95,.67,1.86,1.37,2.76,1.97,.47,.98,1.04,1.97,1.57,3.01l2.22,3.85h4.44c1.16-.06,2.31-.07,3.39-.15,.97,.48,2.03,.92,3.08,1.4l20.54,8.32,10.59,18.28Zm-1.23,50.32l3.37-5.8c.44-.73,.87-1.46,1.32-2.18,.09-.84,.19-1.69,.3-2.53l2.87-20.75-9.87-17.2-9.97-17.14-19.41-7.9c-.79-.33-1.57-.66-2.34-1.01-.85,.03-1.7,.05-2.55,.06l-6.71,.02-3.33-5.81c-.41-.74-.83-1.49-1.22-2.24-.69-.5-1.37-1.01-2.05-1.52l-16.54-12.85-19.84-.06-19.84,.06-16.54,12.85c-.68,.51-1.36,1.03-2.04,1.52-.39,.75-.81,1.49-1.23,2.24l-3.34,5.82-6.71-.02c-.85-.01-1.71-.03-2.55-.06-.77,.35-1.56,.68-2.34,1.01l-19.41,7.89-9.97,17.15-9.87,17.2,2.86,20.75c.11,.84,.22,1.69,.3,2.53,.45,.72,.89,1.45,1.33,2.18l3.37,5.8-3.37,5.8c-.44,.73-.88,1.46-1.33,2.18-.09,.84-.19,1.69-.3,2.53l-2.86,20.75,9.87,17.2,9.97,17.14,19.41,7.89c.78,.33,1.57,.66,2.34,1.01,.85-.03,1.7-.05,2.55-.06l6.71-.02,3.33,5.82c.42,.74,.83,1.49,1.23,2.24,.69,.5,1.37,1.01,2.04,1.53l16.55,12.86,19.84,.06,19.84-.05,16.55-12.85c.68-.52,1.36-1.03,2.04-1.52,.4-.75,.81-1.49,1.23-2.24l3.33-5.81,6.71,.02c.85,.01,1.71,.03,2.56,.06,.77-.35,1.56-.68,2.34-1.01l19.41-7.89,9.97-17.15,9.87-17.2-2.86-20.75c-.11-.84-.21-1.69-.3-2.53-.45-.72-.89-1.45-1.32-2.18l-3.37-5.79Zm-77.58-4.85l2.78,4.85-2.78,4.85-2.81,4.83h-5.59s-5.58,0-5.58,0l-2.81-4.83-2.78-4.85,2.78-4.85,2.81-4.83h5.59s5.59,0,5.59,0l2.81,4.83Z"/>
            <path class="cls-1" d="M499.53,271.93l13.16-22.77-9.29-5.36c-.93-.54-1.24-1.7-.71-2.62,.53-.92,1.7-1.22,2.62-.69l10.78,6.22c.93,.54,1.25,1.7,.72,2.62l-13.07,22.6,13.06,22.61c.53,.92,.21,2.08-.72,2.62l-10.78,6.22c-.93,.54-2.1,.23-2.62-.69-.53-.92-.22-2.08,.71-2.62l9.3-5.36-13.16-22.77Z"/>
            <path class="cls-1" d="M382.23,474.94h26.31s0-10.72,0-10.72c0-1.07,.85-1.93,1.91-1.93s1.91,.86,1.91,1.93v12.43c0,1.07-.85,1.93-1.91,1.93h-26.12s-13.06,22.6-13.06,22.6c-.53,.92-1.7,1.23-2.63,.69l-10.78-6.22c-.93-.54-1.24-1.7-.72-2.62,.53-.92,1.7-1.23,2.63-.69l9.29,5.36,13.16-22.77Z"/>
            <path class="cls-1" d="M147.67,474.91l13.15,22.77,9.3-5.35c.93-.54,2.09-.23,2.62,.69,.53,.92,.21,2.08-.72,2.62l-10.78,6.22c-.93,.54-2.1,.23-2.62-.69l-13.05-22.61h-26.12c-1.06,0-1.91-.86-1.91-1.93v-12.44c0-1.07,.85-1.93,1.91-1.93s1.91,.86,1.91,1.93v10.72h26.31Z"/>
            <path class="cls-1" d="M30.41,271.89l-13.16,22.77,9.29,5.36c.93,.54,1.24,1.7,.72,2.62-.53,.92-1.7,1.23-2.63,.69l-10.77-6.22c-.93-.54-1.25-1.7-.72-2.62l13.06-22.6-13.06-22.61c-.53-.92-.21-2.09,.72-2.62l10.77-6.22c.93-.54,2.1-.23,2.63,.69,.53,.92,.21,2.09-.72,2.62l-9.29,5.36,13.16,22.77Z"/>
            <path class="cls-1" d="M147.7,68.88h-26.31s0,10.72,0,10.72c0,1.07-.85,1.93-1.91,1.93s-1.91-.86-1.91-1.93v-12.44c0-1.07,.85-1.93,1.91-1.93h26.11s13.07-22.6,13.07-22.6c.53-.92,1.7-1.23,2.62-.69l10.78,6.22c.93,.54,1.25,1.7,.72,2.62-.53,.92-1.7,1.23-2.63,.69l-9.29-5.36-13.16,22.77Z"/>
            <path class="cls-1" d="M382.27,68.9l-13.15-22.77-9.29,5.36c-.93,.54-2.1,.23-2.63-.69-.53-.92-.21-2.08,.72-2.62l10.78-6.22c.93-.54,2.1-.23,2.63,.69l13.05,22.61h26.12c1.06,0,1.91,.86,1.91,1.93v12.44c0,1.07-.85,1.93-1.91,1.93s-1.91-.86-1.91-1.93v-10.72h-26.31Z"/>
            <path class="cls-1" d="M473.79,151.44l28.3,22.12c.83,.65,.97,1.85,.32,2.7l-7.66,9.8c-.66,.84-1.86,.99-2.7,.34-.84-.65-.98-1.85-.32-2.7l6.6-8.45-27.95-21.84-4.95-35.12-10.62,1.5c-1.06,.15-2.03-.57-2.18-1.63-.14-1.05,.58-2.01,1.64-2.16l12.33-1.73c1.06-.15,2.03,.57,2.18,1.62l5.01,35.55Z"/>
            <path class="cls-1" d="M473.77,392.41l-5.02,35.56c-.14,1.05-1.11,1.77-2.18,1.62l-12.32-1.73c-1.07-.15-1.79-1.11-1.65-2.16,.15-1.05,1.12-1.77,2.18-1.62l10.63,1.5,4.95-35.12,27.96-21.84-6.6-8.45c-.66-.84-.52-2.04,.31-2.7,.84-.65,2.04-.5,2.7,.35l7.66,9.8c.66,.85,.52,2.04-.32,2.7l-28.3,22.11Z"/>
            <path class="cls-1" d="M264.95,512.88l-33.31,13.44c-.99,.4-2.1-.08-2.5-1.08l-4.66-11.53c-.4-.99,.06-2.11,1.05-2.5,.99-.4,2.1,.08,2.5,1.08l4.01,9.94,32.91-13.28,32.9,13.28,4.02-9.94c.4-1,1.51-1.47,2.5-1.08,.98,.4,1.45,1.51,1.05,2.51l-4.66,11.53c-.4,.99-1.51,1.47-2.49,1.08l-33.31-13.44Z"/>
            <path class="cls-1" d="M56.15,392.38l-28.3-22.12c-.84-.65-.98-1.85-.31-2.7l7.66-9.8c.66-.84,1.86-1,2.69-.34,.84,.65,.98,1.85,.32,2.7l-6.61,8.45,27.96,21.84,4.94,35.12,10.63-1.49c1.06-.15,2.03,.57,2.18,1.62,.15,1.05-.58,2.02-1.64,2.16l-12.33,1.73c-1.06,.15-2.03-.57-2.18-1.62l-5.01-35.55Z"/>
            <path class="cls-1" d="M56.17,151.4l5.01-35.56c.15-1.05,1.12-1.77,2.18-1.62l12.33,1.73c1.06,.15,1.79,1.11,1.64,2.16-.15,1.05-1.12,1.77-2.18,1.63l-10.62-1.49-4.96,35.11-27.96,21.84,6.6,8.45c.66,.84,.52,2.04-.31,2.7-.84,.65-2.03,.5-2.7-.35l-7.66-9.8c-.66-.85-.52-2.05,.32-2.7l28.31-22.11Z"/>
            <path class="cls-1" d="M264.99,30.94l33.32-13.44c.99-.39,2.09,.08,2.49,1.08l4.66,11.54c.4,.99-.07,2.11-1.05,2.5-.99,.4-2.09-.08-2.5-1.07l-4.01-9.94-32.91,13.27-32.9-13.28-4.02,9.94c-.4,1-1.51,1.47-2.49,1.07-.99-.4-1.46-1.51-1.05-2.5l4.66-11.53c.4-1,1.51-1.47,2.5-1.08l33.31,13.45Z"/>
            <path class="cls-1" d="M381.59,271.92l23.22-40.18-29.83-23.3-5.27-37.46h-46.42l-23.21-40.19-35.1,14.16-35.1-14.17-23.21,40.18h-46.42s-5.29,37.45-5.29,37.45l-29.82,23.3,23.21,40.18-23.22,40.18,29.82,23.3,5.27,37.46h46.42l23.2,40.19,35.11-14.16,35.1,14.16,23.21-40.18h46.43s5.28-37.46,5.28-37.46l29.83-23.3-23.21-40.18Zm-3.19-65.45l31.15,24.35-23.75,41.1,23.75,41.1-31.16,24.34-5.52,39.14h-47.49s-23.74,41.09-23.74,41.09l-36.67-14.8-36.68,14.79-23.74-41.11h-47.49l-5.51-39.14-31.16-24.35,23.75-41.1-23.75-41.1,31.17-24.34,5.52-39.14h47.49s23.74-41.09,23.74-41.09l36.68,14.8,36.67-14.79,23.74,41.1h47.49l5.52,39.15Z"/>
            <path class="cls-1" d="M385.28,235.53l-17.34-13.55-1.84,2.37c-.4,.51-.33,1.11-.26,1.71,.1,.9,.67,1.89,1.25,2.88l.17,.13c2.16,3.75,3.92,6.62,5.6,8.88-.71,2.72-1.26,6.04-1.87,10.32l-.1,.19c-.16,1.13-.32,2.26-.08,3.14,.16,.58,.31,1.16,.88,1.49l2.6,1.5,11.01-19.05Zm-91.68-85.94l-20.41,8.23,1.12,2.79c.24,.6,.8,.84,1.35,1.07,.83,.36,1.98,.36,3.12,.36l.2-.08c4.32,0,7.69-.08,10.49-.4,2,1.98,4.6,4.11,8.01,6.77l.1,.18c.9,.71,1.8,1.41,2.68,1.64,.58,.15,1.17,.31,1.73-.01l2.6-1.5-11-19.05Zm-120.31,36.38l-3.07,21.78,2.98,.42c.64,.09,1.12-.27,1.6-.63,.72-.54,1.3-1.53,1.87-2.52l.03-.21c2.16-3.74,3.78-6.7,4.9-9.28,2.72-.74,5.86-1.93,9.87-3.55h.21c1.06-.43,2.12-.86,2.77-1.5,.42-.43,.85-.86,.85-1.5v-3h-22.01Zm-28.63,122.31l17.34,13.55,1.85-2.36c.4-.51,.33-1.11,.26-1.71-.11-.9-.68-1.89-1.25-2.88l-.17-.13c-2.17-3.75-3.91-6.62-5.59-8.87,.71-2.72,1.26-6.04,1.86-10.32l.1-.18c.16-1.13,.33-2.27,.08-3.14-.16-.58-.32-1.17-.87-1.49l-2.6-1.5-11.01,19.05Zm91.67,85.94l20.41-8.23-1.12-2.79c-.24-.6-.8-.84-1.35-1.07-.84-.36-1.98-.36-3.13-.36l-.19,.08c-4.33,0-7.69,.08-10.49,.4-2-1.97-4.6-4.11-8.01-6.78l-.11-.18c-.9-.7-1.81-1.41-2.68-1.64-.58-.15-1.17-.31-1.72,.01l-2.61,1.5,11,19.05Zm120.31-36.38l3.07-21.78-2.97-.42c-.64-.09-1.12,.27-1.6,.63-.73,.54-1.3,1.53-1.87,2.52l-.04,.21c-2.16,3.75-3.77,6.69-4.89,9.28-2.71,.74-5.86,1.93-9.88,3.55h-.21c-1.06,.43-2.12,.86-2.76,1.5-.42,.43-.85,.86-.85,1.5v3h22.01Zm17.62-68.59l-2.6,1.5c-.56,.32-.72,.9-.88,1.49-.24,.87-.08,2.01,.08,3.14l.11,.18c.6,4.28,1.15,7.6,1.86,10.32-1.68,2.26-3.43,5.13-5.6,8.88l-.17,.13c-.57,.99-1.15,1.98-1.25,2.88-.07,.6-.14,1.2,.26,1.71l1.85,2.36,17.34-13.55-11.01-19.05Zm-39.61-103.27v3c0,.64,.42,1.07,.85,1.5,.64,.64,1.7,1.07,2.76,1.5h.21c4.02,1.62,7.16,2.8,9.87,3.55,1.12,2.58,2.73,5.53,4.9,9.28l.03,.21c.57,1,1.15,1.99,1.87,2.53,.48,.36,.97,.72,1.6,.63l2.97-.42-3.06-21.78h-22.01Zm-109.29-17.35l2.6,1.5c.56,.32,1.14,.17,1.73,.02,.88-.23,1.78-.94,2.68-1.64l.11-.18c3.41-2.66,6.01-4.79,8.01-6.77,2.8,.32,6.16,.4,10.49,.4l.2,.08c1.15,0,2.29,0,3.12-.36,.56-.24,1.11-.48,1.35-1.08l1.12-2.78-20.41-8.24-11,19.05Zm-69.69,85.92l2.6-1.5c.56-.32,.72-.9,.88-1.49,.24-.87,.08-2.01-.08-3.14l-.1-.18c-.6-4.29-1.15-7.6-1.86-10.32,1.68-2.26,3.43-5.13,5.59-8.88l.17-.13c.58-.99,1.15-1.98,1.25-2.88,.07-.6,.14-1.2-.26-1.71l-1.85-2.36-17.34,13.54,11,19.05Zm39.61,103.27v-3c0-.64-.42-1.07-.85-1.5-.64-.64-1.7-1.07-2.76-1.5h-.21c-4.01-1.62-7.16-2.81-9.88-3.55-1.12-2.58-2.73-5.54-4.89-9.28l-.03-.21c-.57-.99-1.15-1.98-1.87-2.52-.49-.36-.97-.72-1.6-.63l-2.98,.42,3.07,21.78h22.01Zm109.3,17.35l-2.61-1.5c-.55-.32-1.14-.17-1.72-.01-.88,.23-1.78,.93-2.68,1.64l-.11,.18c-3.41,2.67-6.01,4.8-8.01,6.78-2.79-.32-6.16-.4-10.49-.4l-.19-.08c-1.15,0-2.29,0-3.12,.36-.56,.24-1.11,.47-1.35,1.07l-1.13,2.78,20.41,8.24,11.01-19.05Zm64.13-136.44c-1.45-2.12-2.96-4.61-4.71-7.59l-.03-.3c-.75-1.12-1.52-2.54-1.83-3.88-.21-1.8-.09-3.33,1.1-4.85l3.04-3.88c.66-.85,1.86-1,2.7-.35l21.33,16.66-13.54,23.42c-.53,.92-1.7,1.22-2.62,.69l-4.28-2.47c-1.67-.96-2.36-2.34-2.84-4.09-.21-1.35-.02-2.96,.24-4.28l-.08-.29c.52-3.42,.98-6.3,1.54-8.8m-80.61-73.21c-2.56,.19-5.48,.25-8.94,.29l-.28-.12c-1.34,.08-2.96,.04-4.27-.36-1.67-.72-2.93-1.59-3.65-3.38l-1.85-4.58c-.4-.99,.07-2.11,1.05-2.5l25.09-10.12,13.53,23.43c.53,.92,.21,2.08-.72,2.62l-4.27,2.46c-1.67,.97-3.21,.87-4.97,.41-1.27-.49-2.58-1.46-3.59-2.34l-.29-.08c-2.7-2.15-4.96-4-6.86-5.73m-103.75,33.16c-1.11,2.31-2.52,4.87-4.22,7.88l-.25,.18c-.6,1.2-1.45,2.58-2.45,3.51-1.45,1.08-2.85,1.75-4.76,1.48l-4.89-.69c-1.06-.15-1.79-1.11-1.64-2.16l3.78-26.79h27.06c1.06,0,1.91,.86,1.91,1.94v4.93c0,1.93-.85,3.22-2.12,4.5-1.06,.86-2.55,1.5-3.82,1.93l-.22,.22c-3.21,1.26-5.94,2.3-8.39,3.07m-23.14,106.38c1.45,2.12,2.96,4.61,4.72,7.59l.03,.3c.74,1.12,1.51,2.54,1.82,3.88,.21,1.8,.09,3.33-1.1,4.85l-3.04,3.89c-.66,.84-1.86,1-2.7,.34l-21.32-16.66,13.53-23.42c.53-.92,1.7-1.23,2.63-.69l4.27,2.47c1.67,.96,2.36,2.34,2.84,4.09,.21,1.35,.02,2.96-.24,4.28l.08,.29c-.52,3.42-.98,6.3-1.54,8.8m80.61,73.21c2.56-.19,5.48-.25,8.94-.29l.28,.12c1.35-.08,2.96-.04,4.27,.35,1.67,.72,2.94,1.59,3.66,3.38l1.85,4.57c.4,.99-.07,2.11-1.05,2.5l-25.1,10.13-13.53-23.43c-.53-.92-.21-2.08,.72-2.62l4.28-2.46c1.67-.97,3.21-.87,4.96-.41,1.28,.49,2.58,1.46,3.59,2.34l.29,.07c2.7,2.16,4.97,4,6.86,5.73m103.75-33.16c1.1-2.32,2.51-4.87,4.21-7.88l.24-.18c.6-1.2,1.45-2.58,2.45-3.52,1.46-1.08,2.85-1.74,4.76-1.47l4.89,.68c1.06,.15,1.79,1.11,1.64,2.16l-3.78,26.78h-27.06c-1.07,0-1.91-.86-1.91-1.93v-4.93c0-1.93,.85-3.22,2.12-4.5,1.07-.86,2.55-1.5,3.83-1.93l.21-.21c3.22-1.26,5.95-2.3,8.4-3.07m21.59-48.83l.08-.29c-.27-1.32-.45-2.93-.24-4.28,.48-1.74,1.17-3.12,2.84-4.09l4.27-2.46c.93-.54,2.1-.23,2.63,.69l13.54,23.42-21.33,16.66c-.84,.66-2.03,.5-2.69-.34l-3.04-3.89c-1.18-1.52-1.31-3.06-1.1-4.86,.31-1.33,1.08-2.75,1.82-3.87l.04-.3c1.76-2.98,3.26-5.47,4.71-7.59-.55-2.5-1.01-5.39-1.53-8.8m-29.98-100.66l-.21-.21c-1.28-.43-2.76-1.07-3.82-1.93-1.28-1.29-2.12-2.57-2.12-4.5v-4.93c0-1.07,.85-1.93,1.91-1.93h27.07l3.77,26.78c.15,1.05-.58,2.01-1.64,2.16l-4.89,.69c-1.91,.27-3.3-.39-4.76-1.48-1-.93-1.84-2.31-2.45-3.52l-.24-.18c-1.7-3.01-3.1-5.56-4.21-7.88-2.45-.78-5.18-1.81-8.4-3.08m-102.21-24.38l-.29,.08c-1.01,.89-2.31,1.85-3.58,2.34-1.75,.46-3.3,.55-4.97-.41l-4.28-2.46c-.93-.54-1.24-1.7-.72-2.62l13.54-23.42,25.1,10.13c.98,.4,1.45,1.51,1.05,2.5l-1.85,4.57c-.72,1.79-1.99,2.67-3.65,3.38-1.31,.4-2.93,.44-4.27,.36l-.28,.12c-3.45-.03-6.37-.09-8.94-.29-1.9,1.73-4.16,3.58-6.86,5.73m-72.23,76.27l-.08,.29c.26,1.32,.45,2.92,.24,4.27-.48,1.75-1.16,3.13-2.84,4.09l-4.28,2.47c-.93,.54-2.1,.23-2.62-.69l-13.53-23.43,21.33-16.66c.84-.66,2.03-.5,2.7,.35l3.04,3.88c1.19,1.52,1.31,3.06,1.11,4.85-.32,1.33-1.09,2.75-1.83,3.87l-.04,.3c-1.76,2.98-3.27,5.47-4.72,7.59,.56,2.5,1.02,5.38,1.54,8.8m29.97,100.65l.21,.21c1.27,.43,2.76,1.07,3.83,1.93,1.27,1.29,2.12,2.57,2.12,4.5v4.93c0,1.07-.85,1.93-1.91,1.93h-27.06l-3.77-26.78c-.15-1.05,.58-2.01,1.65-2.16l4.89-.68c1.91-.27,3.3,.39,4.75,1.47,1,.93,1.85,2.31,2.45,3.51l.24,.18c1.7,3.01,3.11,5.57,4.22,7.88,2.45,.78,5.17,1.81,8.39,3.07m102.21,24.38l.29-.08c1.01-.89,2.31-1.85,3.58-2.34,1.75-.46,3.29-.55,4.97,.41l4.27,2.47c.93,.54,1.25,1.7,.71,2.62l-13.53,23.43-25.09-10.13c-.99-.4-1.45-1.51-1.05-2.5l1.84-4.57c.72-1.79,1.99-2.66,3.66-3.38,1.31-.4,2.92-.44,4.27-.36l.28-.12c3.46,.03,6.37,.1,8.93,.29,1.9-1.73,4.16-3.57,6.86-5.73"/>
            <path class="cls-1" d="M432.06,175.51l-4.86,6.22-9.51,12.16c-.66,.84-1.86,1-2.7,.34-.83-.66-.97-1.85-.31-2.7l8.55-10.93-13.74,1.93c-1.06,.15-2.03-.58-2.18-1.63-.15-1.05,.58-2.01,1.64-2.16l15.3-2.15,7.82-1.1Z"/>
            <path class="cls-1" d="M432.05,368.34l-7.82-1.1-15.3-2.15c-1.06-.15-1.79-1.11-1.64-2.16,.15-1.05,1.12-1.77,2.18-1.63l13.74,1.93-8.55-10.93c-.66-.84-.51-2.04,.32-2.7,.84-.65,2.03-.5,2.69,.34l9.51,12.17,4.86,6.22Z"/>
            <path class="cls-1" d="M264.95,464.73l-2.96-7.32-5.79-14.32c-.4-.99,.06-2.11,1.05-2.5,.99-.4,2.1,.08,2.5,1.07l5.19,12.86,5.19-12.86c.4-.99,1.51-1.47,2.5-1.07,.99,.4,1.45,1.51,1.05,2.51l-5.78,14.32-2.96,7.32Z"/>
            <path class="cls-1" d="M97.87,368.31l4.87-6.22,9.51-12.16c.66-.84,1.86-1,2.69-.34,.84,.66,.98,1.85,.32,2.7l-8.55,10.92,13.74-1.93c1.07-.15,2.03,.58,2.18,1.63,.14,1.05-.58,2.01-1.65,2.16l-15.29,2.15-7.82,1.1Z"/>
            <path class="cls-1" d="M97.89,175.48l7.82,1.1,15.29,2.15c1.07,.15,1.79,1.11,1.64,2.16-.14,1.05-1.11,1.77-2.18,1.62l-13.74-1.93,8.55,10.93c.66,.84,.52,2.04-.31,2.7-.84,.65-2.04,.5-2.7-.34l-9.51-12.17-4.86-6.22Z"/>
            <path class="cls-1" d="M264.99,79.08l2.95,7.32,5.78,14.32c.4,.99-.06,2.11-1.05,2.5-.99,.4-2.1-.08-2.5-1.07l-5.19-12.86-5.2,12.86c-.4,.99-1.51,1.47-2.49,1.07-.98-.4-1.46-1.51-1.05-2.51l5.79-14.31,2.96-7.32Z"/>
            <path class="cls-1" d="M448.07,271.92l-3.77-2.17-13.37-7.73c-.93-.54-2.1-.23-2.63,.69-.53,.92-.21,2.08,.72,2.62l11.42,6.59-11.42,6.59c-.93,.53-1.25,1.7-.72,2.62,.53,.92,1.7,1.22,2.63,.69l13.37-7.72,3.77-2.18Z"/>
            <path class="cls-1" d="M356.51,430.39v-19.79c0-1.07-.85-1.93-1.91-1.93s-1.92,.86-1.92,1.93v13.18l-11.42-6.59c-.93-.54-2.1-.23-2.63,.69-.53,.92-.21,2.08,.72,2.62l13.38,7.72,3.77,2.18Z"/>
            <path class="cls-1" d="M173.41,430.37l3.77-2.17,13.38-7.72c.93-.54,1.25-1.7,.72-2.62-.53-.92-1.7-1.23-2.63-.69l-11.42,6.59v-13.17c0-1.07-.85-1.93-1.91-1.93s-1.91,.86-1.91,1.93v19.79Z"/>
            <path class="cls-1" d="M81.87,271.89l3.77,2.18,13.37,7.72c.93,.54,2.1,.23,2.63-.69,.53-.92,.21-2.08-.72-2.62l-11.42-6.59,11.42-6.59c.93-.54,1.25-1.7,.72-2.62-.53-.92-1.7-1.22-2.62-.69l-13.38,7.72-3.77,2.18Z"/>
            <path class="cls-1" d="M173.43,113.43v19.79c0,1.07,.85,1.93,1.91,1.93s1.91-.86,1.91-1.93v-13.17l11.42,6.59c.93,.54,2.1,.23,2.63-.69,.53-.92,.21-2.08-.72-2.62l-13.37-7.72-3.77-2.18Z"/>
            <path class="cls-1" d="M356.53,113.44l-3.77,2.17-13.38,7.72c-.93,.54-1.25,1.7-.72,2.62,.53,.92,1.7,1.23,2.62,.69l11.42-6.59v13.17c0,1.07,.85,1.93,1.91,1.93s1.91-.86,1.91-1.93v-19.79Z"/>
            <path class="cls-1" d="M462.68,173.25c1.17,.91,1.78,2.21,1.92,3.41,.17,1.5-.29,2.77-1.21,3.96-.8,1.01-1.92,1.77-3.42,1.96-1.2,.15-2.6-.13-3.78-1.04-1.17-.92-1.78-2.21-1.92-3.41,0-1.37,.29-2.77,1.08-3.79,.93-1.18,2.22-1.8,3.55-2.13,1.2-.15,2.6,.13,3.77,1.04m-1.8,4.03c-.03-.3-.24-.73-.57-.99-.34-.26-.64-.22-.93-.18-.47-.09-.73,.24-1,.58-.13,.17-.39,.51-.36,.8,.2,.43,.24,.73,.57,.99,.34,.26,.8,.35,1.1,.32,.3-.04,.73-.24,.87-.41,.26-.34,.36-.81,.33-1.11"/>
            <path class="cls-1" d="M278.34,51.45c1.38-.56,2.8-.44,3.91,.04,1.39,.6,2.26,1.63,2.82,3.03,.48,1.19,.57,2.54-.01,3.94-.47,1.11-1.41,2.19-2.79,2.74-1.38,.56-2.8,.44-3.91-.04-1.19-.67-2.26-1.63-2.74-2.82-.56-1.39-.45-2.82-.07-4.13,.47-1.12,1.41-2.19,2.79-2.75m2.6,3.58c-.28-.12-.76-.16-1.15,0-.39,.16-.51,.44-.63,.72-.32,.35-.16,.76,0,1.15,.08,.2,.24,.59,.52,.72,.47,.04,.75,.16,1.15,0,.39-.16,.7-.52,.82-.8,.11-.28,.15-.76,.07-.95-.17-.4-.52-.72-.79-.84"/>
            <path class="cls-1" d="M80.63,150.11c.21-1.47,1.02-2.64,1.99-3.37,1.21-.9,2.54-1.14,4.03-.93,1.28,.18,2.49,.78,3.41,1.98,.73,.96,1.19,2.31,.98,3.78-.21,1.47-1.02,2.64-1.99,3.36-1.18,.69-2.54,1.15-3.81,.96-1.49-.21-2.68-1.02-3.62-2.01-.73-.96-1.19-2.31-.98-3.78m4.39-.45c-.24,.18-.51,.57-.57,.99-.06,.42,.13,.66,.31,.9,.15,.45,.58,.51,1,.57,.21,.03,.64,.09,.88-.09,.27-.39,.52-.57,.58-.99,.06-.42-.1-.87-.28-1.11-.19-.24-.58-.51-.8-.54-.42-.06-.88,.09-1.12,.27"/>
            <path class="cls-1" d="M67.25,370.56c-1.17-.92-1.78-2.2-1.92-3.41-.18-1.5,.28-2.77,1.21-3.96,.79-1.01,1.92-1.77,3.41-1.96,1.2-.15,2.6,.13,3.77,1.04,1.17,.92,1.78,2.21,1.92,3.41,.01,1.37-.28,2.77-1.08,3.79-.92,1.18-2.22,1.81-3.55,2.13-1.2,.15-2.59-.13-3.77-1.04m1.81-4.03c.03,.3,.23,.73,.57,.99,.34,.26,.64,.22,.93,.18,.47,.09,.74-.25,1-.58,.13-.17,.4-.5,.36-.81-.2-.43-.24-.73-.57-.99-.33-.26-.8-.35-1.1-.32-.3,.04-.73,.25-.86,.41-.26,.34-.36,.81-.32,1.11"/>
            <path class="cls-1" d="M251.6,492.36c-1.37,.56-2.8,.44-3.91-.04-1.39-.6-2.26-1.63-2.83-3.03-.48-1.19-.57-2.54,.02-3.94,.46-1.11,1.41-2.19,2.78-2.74,1.38-.56,2.81-.44,3.91,.04,1.19,.68,2.26,1.63,2.74,2.83,.56,1.39,.45,2.82,.07,4.14-.46,1.11-1.41,2.18-2.79,2.74m-2.59-3.58c.27,.12,.75,.16,1.14,0,.4-.16,.51-.44,.63-.72,.31-.36,.15-.76-.01-1.16-.08-.19-.24-.6-.52-.71-.48-.04-.75-.16-1.15,0-.39,.16-.71,.52-.82,.79-.12,.28-.15,.76-.07,.95,.16,.4,.52,.72,.8,.84"/>
            <path class="cls-1" d="M449.32,393.71c-.21,1.47-1.03,2.65-1.99,3.37-1.21,.9-2.54,1.14-4.03,.93-1.27-.18-2.49-.78-3.4-1.98-.73-.96-1.19-2.31-.98-3.78,.21-1.47,1.02-2.64,1.99-3.36,1.18-.69,2.54-1.14,3.81-.96,1.49,.21,2.68,1.02,3.62,2.01,.73,.96,1.19,2.31,.98,3.78m-4.4,.46c.24-.18,.52-.57,.57-.99,.06-.42-.13-.66-.3-.9-.16-.45-.58-.51-1-.57-.22-.03-.64-.09-.88,.09-.27,.39-.52,.57-.57,.99-.06,.42,.09,.87,.27,1.11,.18,.24,.58,.51,.79,.54,.42,.06,.88-.09,1.12-.27"/>
            <path class="cls-1" d="M462.67,370.6c1.17-.92,1.78-2.2,1.92-3.41,.17-1.5-.29-2.77-1.21-3.96-.79-1.01-1.92-1.77-3.42-1.96-1.2-.15-2.59,.13-3.77,1.04-1.17,.92-1.78,2.21-1.92,3.41,0,1.37,.29,2.77,1.08,3.79,.92,1.18,2.22,1.8,3.55,2.13,1.2,.15,2.59-.13,3.77-1.04m-1.8-4.03c-.03,.3-.24,.73-.57,.99-.34,.26-.64,.22-.93,.18-.46,.09-.73-.25-1-.58-.13-.17-.4-.51-.36-.81,.2-.43,.24-.73,.57-.99,.34-.26,.8-.35,1.1-.31,.3,.04,.73,.25,.87,.42,.26,.34,.36,.81,.33,1.1"/>
            <path class="cls-1" d="M449.34,150.14c-.21-1.47-1.02-2.64-1.99-3.36-1.21-.9-2.54-1.14-4.03-.93-1.28,.18-2.49,.78-3.4,1.98-.73,.96-1.19,2.31-.99,3.78,.21,1.47,1.03,2.64,1.99,3.36,1.18,.69,2.54,1.14,3.81,.96,1.49-.21,2.68-1.02,3.62-2.01,.73-.96,1.19-2.31,.99-3.79m-4.4-.45c.24,.18,.52,.57,.57,.99,.06,.42-.12,.66-.3,.9-.16,.45-.58,.51-1.01,.57-.21,.03-.64,.09-.88-.09-.27-.39-.51-.57-.57-.99-.05-.42,.1-.87,.28-1.11,.18-.24,.58-.51,.79-.54,.42-.06,.88,.09,1.12,.27"/>
            <path class="cls-1" d="M251.64,51.45c-1.38-.56-2.8-.44-3.91,.04-1.39,.6-2.26,1.63-2.82,3.02-.48,1.19-.57,2.54,.01,3.94,.47,1.11,1.41,2.19,2.79,2.74,1.38,.56,2.8,.44,3.91-.04,1.18-.68,2.26-1.63,2.74-2.83,.56-1.39,.45-2.82,.06-4.13-.46-1.11-1.4-2.19-2.78-2.75m-2.59,3.58c.27-.12,.75-.16,1.15,0,.39,.16,.51,.43,.62,.72,.32,.36,.15,.75,0,1.15-.08,.2-.24,.6-.52,.72-.48,.04-.75,.16-1.14,0-.39-.16-.7-.52-.82-.8-.12-.28-.15-.76-.07-.96,.16-.4,.52-.71,.8-.83"/>
            <path class="cls-1" d="M67.27,173.22c-1.17,.92-1.78,2.21-1.92,3.41-.18,1.5,.28,2.77,1.21,3.96,.79,1.01,1.92,1.77,3.41,1.96,1.2,.15,2.6-.13,3.77-1.04,1.17-.92,1.78-2.21,1.92-3.41,0-1.37-.28-2.77-1.08-3.79-.92-1.18-2.22-1.8-3.55-2.13-1.2-.15-2.6,.13-3.77,1.04m1.8,4.03c.04-.3,.24-.73,.58-.99,.33-.26,.63-.22,.93-.19,.47-.09,.73,.24,1,.58,.13,.17,.4,.51,.36,.81-.2,.43-.23,.73-.57,.99-.33,.26-.8,.36-1.1,.32-.3-.04-.73-.25-.87-.42-.26-.34-.36-.81-.33-1.11"/>
            <path class="cls-1" d="M80.6,393.68c.21,1.47,1.03,2.64,1.99,3.36,1.21,.9,2.54,1.14,4.03,.93,1.28-.18,2.49-.78,3.41-1.98,.73-.96,1.19-2.31,.98-3.78-.21-1.47-1.02-2.64-1.99-3.37-1.18-.69-2.54-1.14-3.82-.96-1.49,.21-2.67,1.02-3.61,2.01-.73,.96-1.19,2.31-.98,3.79m4.4,.45c-.25-.18-.52-.57-.58-.99-.06-.42,.13-.66,.31-.9,.15-.45,.58-.51,1-.57,.21-.03,.64-.09,.88,.09,.27,.39,.51,.57,.57,.99,.06,.42-.1,.87-.27,1.11-.19,.24-.58,.51-.8,.54-.42,.06-.88-.09-1.12-.27"/>
            <path class="cls-1" d="M278.3,492.37c1.38,.55,2.8,.44,3.91-.04,1.39-.6,2.26-1.63,2.83-3.03,.47-1.19,.57-2.54-.02-3.94-.46-1.11-1.41-2.19-2.78-2.74-1.38-.55-2.81-.44-3.91,.04-1.19,.68-2.26,1.63-2.74,2.83-.56,1.39-.46,2.82-.07,4.13,.46,1.11,1.4,2.19,2.78,2.75m2.6-3.58c-.28,.12-.75,.16-1.15,0-.39-.16-.51-.43-.63-.72-.31-.36-.15-.75,.01-1.15,.08-.2,.24-.59,.52-.72,.47-.04,.75-.16,1.15,0,.4,.16,.71,.52,.82,.8,.12,.28,.15,.76,.07,.95-.16,.4-.52,.72-.79,.84"/>
            <path class="cls-1" d="M480.38,264.34c.74-1.29,.82-2.71,.5-3.88-.4-1.45-1.3-2.47-2.6-3.22-1.12-.64-2.44-.92-3.9-.54-1.17,.31-2.37,1.09-3.11,2.38-.74,1.29-.82,2.71-.5,3.88,.5,1.27,1.3,2.46,2.42,3.11,1.3,.75,2.73,.84,4.08,.64,1.17-.31,2.37-1.09,3.11-2.37m-3.18-3.07c.08,.29,.05,.76-.16,1.13-.21,.37-.5,.45-.8,.52-.4,.26-.77,.05-1.14-.17-.19-.11-.56-.32-.64-.61,.03-.48-.05-.77,.16-1.13,.21-.37,.61-.63,.91-.71,.29-.07,.77-.05,.96,.06,.37,.21,.64,.61,.72,.9"/>
            <path class="cls-1" d="M366.11,81.68c-.74-1.29-1.94-2.07-3.1-2.38-1.46-.38-2.79-.11-4.09,.64-1.12,.64-2.02,1.65-2.42,3.11-.32,1.16-.24,2.59,.51,3.88,.74,1.29,1.94,2.07,3.1,2.38,1.35,.2,2.79,.11,3.9-.53,1.3-.75,2.1-1.95,2.6-3.22,.32-1.17,.24-2.59-.5-3.88m-4.25,1.22c.29,.08,.69,.34,.9,.7,.22,.37,.14,.66,.06,.95,.02,.48-.35,.69-.72,.9-.18,.11-.56,.32-.85,.24-.39-.26-.69-.34-.91-.7-.21-.37-.24-.84-.15-1.13,.08-.29,.34-.69,.53-.8,.37-.22,.85-.25,1.14-.17"/>
            <path class="cls-1" d="M150.71,89.25c-1.48,0-2.76,.64-3.61,1.5-1.07,1.07-1.49,2.36-1.49,3.86,0,1.29,.42,2.57,1.48,3.65,.85,.86,2.12,1.5,3.61,1.5s2.76-.64,3.61-1.5c.85-1.07,1.49-2.36,1.49-3.64,0-1.5-.64-2.79-1.48-3.86-.85-.86-2.13-1.5-3.61-1.5m-1.06,4.29c.21-.22,.64-.43,1.06-.43s.64,.21,.85,.43c.43,.21,.43,.64,.43,1.07,0,.22,0,.64-.22,.86-.42,.21-.64,.43-1.06,.43s-.85-.22-1.06-.43c-.22-.21-.43-.64-.43-.86,0-.43,.21-.86,.43-1.07"/>
            <path class="cls-1" d="M49.56,279.47c-.74,1.29-.82,2.71-.51,3.88,.39,1.46,1.3,2.47,2.6,3.22,1.12,.64,2.45,.92,3.91,.54,1.17-.31,2.36-1.09,3.1-2.38,.74-1.29,.82-2.71,.5-3.88-.5-1.27-1.3-2.46-2.41-3.11-1.3-.75-2.74-.84-4.09-.64-1.17,.31-2.37,1.09-3.1,2.37m3.18,3.07c-.08-.29-.06-.76,.15-1.13,.22-.37,.51-.44,.8-.52,.39-.26,.77-.05,1.14,.17,.18,.11,.56,.32,.64,.61-.02,.48,.05,.77-.16,1.13-.21,.37-.61,.63-.9,.7-.29,.08-.77,.05-.96-.06-.37-.21-.64-.61-.72-.9"/>
            <path class="cls-1" d="M163.82,462.13c.74,1.29,1.94,2.07,3.1,2.38,1.46,.38,2.79,.11,4.09-.64,1.12-.64,2.02-1.65,2.42-3.11,.31-1.16,.24-2.59-.5-3.88-.74-1.29-1.94-2.07-3.1-2.38-1.36-.2-2.79-.11-3.91,.54-1.3,.75-2.1,1.94-2.6,3.21-.32,1.17-.24,2.59,.5,3.88m4.25-1.22c-.29-.08-.69-.34-.9-.71-.21-.37-.13-.66-.05-.95-.03-.48,.34-.69,.72-.9,.19-.11,.56-.32,.85-.25,.4,.26,.69,.34,.9,.71,.21,.37,.24,.84,.16,1.13-.08,.29-.34,.69-.53,.8-.37,.21-.85,.24-1.14,.17"/>
            <path class="cls-1" d="M379.23,454.56c1.49,0,2.76-.64,3.61-1.5,1.06-1.07,1.48-2.36,1.48-3.86,0-1.29-.42-2.57-1.48-3.65-.85-.86-2.12-1.5-3.61-1.5s-2.76,.64-3.61,1.5c-.85,1.07-1.49,2.36-1.49,3.64,0,1.5,.63,2.79,1.49,3.86,.85,.86,2.12,1.5,3.61,1.5m1.06-4.29c-.21,.21-.64,.43-1.06,.43s-.64-.22-.85-.43c-.42-.21-.42-.64-.42-1.07,0-.21,0-.64,.21-.86,.42-.21,.64-.43,1.07-.43s.85,.21,1.06,.43c.21,.21,.42,.64,.42,.86,0,.43-.21,.86-.42,1.07"/>
            <path class="cls-1" d="M480.38,279.51c.74,1.29,.82,2.71,.5,3.88-.4,1.46-1.3,2.47-2.6,3.22-1.12,.64-2.45,.92-3.91,.54-1.17-.31-2.36-1.09-3.11-2.37-.74-1.29-.82-2.71-.5-3.88,.5-1.28,1.3-2.47,2.41-3.11,1.31-.75,2.74-.84,4.09-.64,1.17,.31,2.37,1.09,3.11,2.38m-3.19,3.06c.08-.29,.06-.77-.16-1.13-.21-.37-.5-.45-.8-.52-.4-.26-.77-.05-1.14,.17-.18,.11-.56,.32-.64,.61,.03,.48-.05,.76,.16,1.13,.21,.37,.61,.63,.9,.71,.29,.07,.77,.04,.96-.06,.37-.21,.64-.61,.72-.9"/>
            <path class="cls-1" d="M379.26,89.27c1.48,0,2.76,.64,3.61,1.5,1.07,1.07,1.49,2.36,1.49,3.86,0,1.29-.42,2.57-1.49,3.64-.85,.86-2.12,1.5-3.61,1.5s-2.77-.64-3.61-1.5c-.85-1.07-1.48-2.36-1.48-3.64,0-1.5,.63-2.79,1.48-3.86,.85-.86,2.12-1.5,3.61-1.5m1.06,4.29c-.21-.21-.64-.43-1.06-.43s-.64,.22-.85,.43c-.43,.22-.43,.64-.43,1.08,0,.21,0,.64,.22,.85,.42,.22,.64,.43,1.06,.43s.85-.21,1.06-.43c.21-.21,.42-.64,.42-.85,0-.43-.21-.86-.42-1.08"/>
            <path class="cls-1" d="M163.86,81.67c.74-1.29,1.94-2.07,3.1-2.38,1.47-.38,2.79-.1,4.09,.65,1.12,.64,2.02,1.65,2.42,3.11,.32,1.16,.24,2.59-.5,3.88-.74,1.29-1.94,2.07-3.11,2.38-1.35,.2-2.79,.11-3.9-.53-1.3-.75-2.1-1.95-2.6-3.22-.32-1.16-.24-2.59,.5-3.88m4.24,1.23c-.29,.08-.69,.33-.9,.7-.21,.37-.14,.66-.06,.95-.02,.47,.35,.69,.72,.9,.18,.11,.56,.32,.85,.25,.4-.26,.69-.34,.9-.71,.22-.37,.24-.84,.17-1.13-.08-.29-.35-.69-.53-.8-.37-.22-.85-.25-1.15-.17"/>
            <path class="cls-1" d="M49.56,264.3c-.74-1.29-.82-2.71-.5-3.88,.39-1.46,1.3-2.47,2.6-3.22,1.11-.64,2.44-.92,3.9-.54,1.17,.3,2.36,1.09,3.1,2.38,.74,1.29,.82,2.71,.51,3.88-.51,1.27-1.3,2.47-2.42,3.11-1.3,.75-2.73,.84-4.09,.64-1.17-.31-2.36-1.09-3.1-2.38m3.18-3.06c-.08,.29-.05,.77,.16,1.13,.21,.37,.5,.44,.8,.52,.39,.26,.77,.05,1.14-.17,.18-.11,.56-.32,.64-.61-.02-.48,.06-.76-.16-1.13-.21-.37-.61-.63-.9-.71-.29-.07-.77-.04-.96,.06-.37,.21-.64,.62-.72,.9"/>
            <path class="cls-1" d="M150.68,454.54c-1.49,0-2.76-.64-3.61-1.5-1.06-1.07-1.49-2.36-1.49-3.86,0-1.29,.43-2.58,1.49-3.65,.85-.86,2.12-1.5,3.61-1.5s2.76,.64,3.61,1.5c.85,1.07,1.49,2.36,1.49,3.65,0,1.5-.64,2.79-1.49,3.86-.85,.86-2.12,1.5-3.61,1.5m-1.07-4.29c.22,.21,.64,.43,1.07,.43s.64-.21,.85-.43c.42-.21,.42-.64,.42-1.07,0-.21,0-.65-.21-.86-.42-.21-.64-.43-1.06-.43s-.85,.21-1.07,.43c-.21,.21-.42,.64-.42,.86,0,.43,.21,.86,.42,1.07"/>
            <path class="cls-1" d="M366.08,462.15c-.75,1.29-1.94,2.07-3.11,2.38-1.46,.38-2.78,.11-4.08-.64-1.12-.64-2.02-1.66-2.42-3.11-.32-1.16-.24-2.59,.5-3.88,.75-1.29,1.94-2.07,3.1-2.37,1.36-.2,2.79-.11,3.91,.54,1.3,.75,2.1,1.95,2.6,3.22,.32,1.17,.24,2.59-.5,3.88m-4.25-1.23c.29-.08,.69-.34,.9-.7,.22-.37,.14-.66,.06-.95,.02-.48-.34-.69-.72-.9-.19-.11-.56-.32-.85-.25-.4,.26-.69,.34-.91,.71-.21,.37-.24,.84-.16,1.13,.08,.29,.34,.69,.53,.79,.37,.22,.85,.25,1.14,.17"/>
            <path class="cls-1" d="M434.8,208.9c1.17,.91,1.91,2.04,1.92,3.4,.31,1.33-.15,2.6-1.08,3.79-.92,1.18-2.05,1.94-3.41,1.96-1.2,.15-2.6-.12-3.78-1.04-1.17-.92-1.78-2.21-1.92-3.41-.14-1.2,.15-2.6,1.08-3.79,.92-1.18,2.22-1.81,3.41-1.96,1.33-.32,2.6,.12,3.77,1.04m-1.67,3.86c-.04-.3-.24-.73-.57-.99-.34-.26-.64-.22-.94-.18-.46-.09-.73,.24-.99,.58-.26,.34-.4,.51-.37,.81,.07,.6,.24,.73,.57,.99,.34,.26,.68,.52,.97,.48,.44-.21,.74-.25,1-.58,.26-.34,.35-.81,.33-1.11"/>
            <path class="cls-1" d="M295.28,93.41c1.38-.56,2.73-.64,3.91,.04,1.31,.4,2.18,1.43,2.74,2.83,.56,1.39,.65,2.74-.01,3.94-.46,1.11-1.41,2.19-2.79,2.75-1.38,.55-2.8,.44-3.91-.04-1.1-.48-2.18-1.43-2.74-2.82-.57-1.39-.45-2.82,.01-3.94,.38-1.31,1.41-2.19,2.78-2.74m2.51,3.38c-.27-.12-.75-.16-1.15,0-.4,.16-.51,.44-.63,.72-.32,.35-.15,.75,0,1.15,.17,.4,.25,.6,.52,.72,.56,.24,.75,.16,1.15,0,.39-.16,.79-.32,.9-.6,.03-.48,.15-.76,0-1.15-.16-.4-.52-.72-.8-.83"/>
            <path class="cls-1" d="M125.45,156.42c.21-1.47,.81-2.67,1.99-3.36,1-.93,2.33-1.17,3.82-.96,1.49,.21,2.7,.81,3.4,1.98,.73,.96,1.19,2.31,.98,3.78-.21,1.47-1.02,2.64-1.99,3.36-.97,.72-2.33,1.17-3.82,.96-1.48-.21-2.67-1.02-3.4-1.98-.94-.99-1.19-2.31-.98-3.78m4.19-.48c-.24,.18-.51,.57-.57,.99-.06,.42,.13,.66,.3,.9,.16,.45,.58,.51,1,.57,.43,.06,.64,.09,.88-.09,.49-.36,.52-.57,.57-.99,.06-.42,.12-.84-.06-1.08-.4-.27-.58-.51-1-.57-.42-.06-.88,.09-1.12,.27"/>
            <path class="cls-1" d="M95.14,334.92c-1.17-.91-1.91-2.04-1.92-3.4-.3-1.33,.15-2.6,1.08-3.79,.93-1.18,2.05-1.93,3.42-1.96,1.2-.15,2.6,.12,3.77,1.04,1.17,.92,1.78,2.21,1.92,3.41,.14,1.2-.15,2.6-1.07,3.79-.93,1.19-2.22,1.81-3.42,1.96-1.33,.32-2.6-.13-3.77-1.04m1.67-3.86c.04,.3,.24,.73,.57,.99,.33,.26,.64,.23,.93,.19,.46,.09,.73-.25,.99-.58,.27-.34,.4-.51,.37-.81-.07-.6-.24-.73-.57-.99-.34-.26-.67-.52-.97-.48-.44,.21-.73,.24-1,.58-.26,.34-.36,.81-.33,1.1"/>
            <path class="cls-1" d="M234.65,450.4c-1.37,.56-2.72,.63-3.91-.04-1.31-.4-2.18-1.43-2.74-2.83-.56-1.39-.65-2.74,.02-3.94,.46-1.11,1.4-2.19,2.78-2.74,1.38-.56,2.8-.44,3.91,.04,1.11,.48,2.18,1.43,2.74,2.83,.56,1.39,.45,2.82-.02,3.94-.38,1.31-1.4,2.19-2.78,2.74m-2.51-3.38c.28,.12,.76,.16,1.15,0,.39-.16,.51-.44,.62-.72,.31-.35,.15-.75,0-1.15-.16-.4-.24-.59-.52-.72-.55-.24-.75-.16-1.15,0-.39,.16-.78,.32-.9,.6-.03,.48-.15,.76,.01,1.15,.16,.4,.51,.72,.79,.84"/>
            <path class="cls-1" d="M404.48,387.39c-.21,1.47-.81,2.67-1.99,3.36-1,.93-2.33,1.17-3.82,.96-1.48-.21-2.7-.81-3.4-1.98-.73-.96-1.19-2.31-.98-3.79,.21-1.47,1.03-2.64,1.99-3.36,.97-.72,2.33-1.17,3.82-.96,1.48,.21,2.67,1.02,3.4,1.98,.95,.99,1.19,2.31,.99,3.78m-4.18,.48c.24-.18,.51-.57,.57-.99,.06-.42-.13-.66-.31-.9-.15-.45-.58-.51-1-.57-.42-.06-.64-.09-.88,.09-.49,.36-.51,.57-.57,.99-.06,.42-.12,.84,.07,1.08,.39,.28,.57,.52,1,.58,.42,.06,.88-.09,1.12-.27"/>
            <path class="cls-1" d="M434.79,334.95c1.17-.92,1.91-2.04,1.92-3.41,.31-1.33-.15-2.6-1.07-3.79-.93-1.19-2.06-1.94-3.42-1.96-1.2-.15-2.6,.13-3.77,1.04-1.17,.92-1.78,2.2-1.92,3.41-.14,1.2,.16,2.61,1.08,3.79,.92,1.18,2.22,1.8,3.41,1.96,1.33,.32,2.6-.12,3.77-1.04m-1.67-3.86c-.03,.3-.24,.73-.57,.99-.34,.26-.64,.22-.93,.18-.47,.09-.73-.25-1-.58-.26-.34-.4-.51-.36-.81,.07-.6,.24-.73,.57-.99,.33-.26,.67-.52,.97-.49,.43,.21,.73,.25,1,.58,.26,.34,.36,.81,.33,1.11"/>
            <path class="cls-1" d="M404.5,156.44c-.21-1.47-.81-2.67-1.99-3.36-1-.93-2.33-1.17-3.82-.96-1.48,.21-2.7,.81-3.4,1.98-.73,.96-1.19,2.31-.99,3.78,.21,1.47,1.02,2.64,1.99,3.36,.97,.72,2.34,1.17,3.83,.96,1.48-.21,2.67-1.02,3.4-1.98,.95-.99,1.19-2.31,.98-3.78m-4.18-.48c.24,.18,.52,.58,.57,.99,.06,.42-.13,.66-.3,.9-.16,.45-.58,.51-1.01,.57-.42,.06-.64,.09-.88-.09-.49-.36-.52-.57-.57-.99-.06-.42-.12-.84,.06-1.08,.4-.27,.58-.51,1-.57,.42-.06,.88,.09,1.12,.27"/>
            <path class="cls-1" d="M234.68,93.4c-1.37-.56-2.72-.64-3.91,.04-1.31,.4-2.18,1.43-2.74,2.82-.56,1.39-.65,2.75,.02,3.94,.46,1.11,1.4,2.19,2.78,2.74,1.38,.56,2.8,.44,3.91-.04,1.1-.48,2.18-1.43,2.74-2.82,.56-1.39,.45-2.82-.01-3.94-.39-1.31-1.41-2.19-2.79-2.75m-2.51,3.38c.27-.12,.75-.16,1.15,0,.4,.16,.51,.44,.62,.72,.31,.35,.15,.75,0,1.15-.16,.4-.24,.6-.52,.72-.56,.24-.75,.16-1.15,0-.4-.16-.79-.32-.9-.6-.04-.48-.15-.76,0-1.15,.16-.4,.52-.72,.8-.83"/>
            <path class="cls-1" d="M95.15,208.87c-1.17,.92-1.91,2.04-1.92,3.41-.31,1.33,.15,2.61,1.08,3.79,.92,1.18,2.05,1.93,3.41,1.96,1.2,.15,2.6-.13,3.77-1.04,1.17-.92,1.78-2.21,1.92-3.41,.14-1.2-.15-2.6-1.07-3.79-.93-1.18-2.22-1.8-3.42-1.95-1.33-.32-2.6,.12-3.77,1.04m1.67,3.86c.03-.3,.23-.73,.57-.99,.33-.26,.63-.22,.93-.19,.46-.09,.73,.25,.99,.58,.27,.34,.4,.51,.37,.81-.07,.6-.24,.73-.58,.99-.33,.26-.66,.52-.97,.48-.43-.21-.73-.24-1-.58-.26-.34-.35-.81-.32-1.11"/>
            <path class="cls-1" d="M125.43,387.37c.21,1.47,.81,2.67,1.99,3.36,1,.93,2.33,1.17,3.82,.96,1.49-.21,2.7-.81,3.4-1.98,.74-.96,1.19-2.31,.98-3.78-.21-1.47-1.02-2.64-1.99-3.37-.97-.72-2.33-1.17-3.82-.96-1.49,.21-2.68,1.02-3.4,1.98-.95,.99-1.19,2.31-.99,3.78m4.18,.48c-.24-.18-.51-.57-.57-.99-.06-.42,.13-.66,.31-.9,.15-.45,.58-.51,1-.57,.42-.06,.64-.09,.88,.09,.48,.36,.51,.57,.57,.99,.06,.42,.11,.84-.07,1.08-.39,.27-.58,.51-1,.57-.42,.06-.88-.09-1.12-.27"/>
            <path class="cls-1" d="M295.25,450.41c1.38,.56,2.72,.63,3.91-.04,1.31-.4,2.18-1.43,2.74-2.82,.56-1.39,.65-2.74-.01-3.94-.47-1.11-1.41-2.18-2.79-2.74-1.37-.56-2.8-.44-3.91,.04-1.11,.48-2.18,1.43-2.75,2.83-.56,1.39-.45,2.82,.02,3.94,.38,1.31,1.4,2.19,2.78,2.75m2.51-3.38c-.28,.12-.75,.16-1.15,0-.39-.16-.51-.44-.62-.72-.32-.36-.16-.75,0-1.15,.16-.4,.24-.6,.52-.72,.55-.24,.75-.16,1.15,0,.39,.16,.78,.32,.9,.6,.04,.48,.16,.75-.01,1.15-.16,.4-.52,.72-.8,.84"/>
            <path class="cls-1" d="M441.17,241.71c.75-1.29,1.01-2.6,.51-3.88-.21-1.35-1.12-2.36-2.42-3.11-1.3-.75-2.62-1.03-3.9-.54-1.17,.31-2.37,1.09-3.11,2.38-.74,1.29-.83,2.71-.5,3.88,.32,1.16,1.12,2.36,2.42,3.11s2.73,.84,3.9,.54c1.35-.2,2.37-1.09,3.1-2.37m-3-2.96c.08,.29,.05,.77-.16,1.13-.21,.37-.5,.44-.8,.52-.4,.26-.77,.05-1.14-.17-.37-.21-.56-.32-.64-.61-.16-.58-.06-.77,.16-1.13,.21-.37,.43-.74,.71-.81,.48,.03,.77-.05,1.15,.17,.37,.21,.63,.61,.71,.9"/>
            <path class="cls-1" d="M326.9,104.3c-.74-1.29-1.75-2.18-3.1-2.38-1.27-.49-2.6-.21-3.9,.54-1.3,.75-2.2,1.76-2.42,3.11-.32,1.16-.24,2.59,.5,3.88,.74,1.29,1.94,2.07,3.1,2.37,1.17,.31,2.61,.22,3.91-.54,1.3-.75,2.1-1.94,2.41-3.11,.51-1.27,.24-2.59-.5-3.88m-4.06,1.12c.29,.08,.69,.34,.9,.7,.21,.37,.13,.66,.05,.95,.03,.48-.34,.69-.72,.9-.37,.22-.55,.32-.85,.25-.58-.15-.69-.34-.91-.7-.21-.37-.42-.74-.34-1.03,.26-.4,.34-.69,.72-.9,.37-.21,.85-.25,1.14-.17"/>
            <path class="cls-1" d="M150.7,134.5c-1.49,0-2.76,.43-3.61,1.5-1.06,.86-1.5,2.14-1.5,3.64s.42,2.79,1.49,3.65c.85,.86,2.12,1.5,3.61,1.5s2.76-.64,3.61-1.5c.85-.86,1.49-2.14,1.49-3.64s-.64-2.79-1.49-3.65c-.85-1.07-2.12-1.5-3.61-1.5m-1.06,4.08c.22-.21,.64-.43,1.06-.43,.42,0,.64,.21,.85,.43,.42,.21,.42,.64,.42,1.07s0,.64-.21,.86c-.42,.43-.64,.43-1.07,.43s-.85,0-1.06-.21c-.21-.43-.42-.64-.42-1.07s.21-.86,.42-1.07"/>
            <path class="cls-1" d="M88.76,302.11c-.74,1.29-1.01,2.61-.5,3.88,.21,1.35,1.11,2.36,2.41,3.11,1.31,.75,2.63,1.03,3.91,.54,1.17-.31,2.36-1.09,3.1-2.38,.74-1.29,.83-2.71,.5-3.88-.31-1.16-1.11-2.36-2.42-3.11-1.29-.75-2.73-.84-3.9-.54-1.36,.2-2.37,1.09-3.11,2.37m3,2.96c-.08-.29-.06-.77,.15-1.13,.21-.37,.51-.44,.8-.52,.39-.26,.77-.05,1.14,.17,.37,.21,.55,.32,.64,.61,.16,.58,.05,.77-.16,1.14-.21,.37-.42,.73-.72,.81-.48-.03-.77,.05-1.14-.17-.37-.21-.64-.61-.72-.9"/>
            <path class="cls-1" d="M203.04,439.51c.74,1.29,1.75,2.17,3.1,2.38,1.27,.49,2.6,.21,3.91-.53,1.3-.75,2.2-1.76,2.41-3.11,.32-1.17,.24-2.59-.5-3.88-.74-1.29-1.94-2.07-3.1-2.37-1.17-.31-2.6-.22-3.9,.54-1.3,.75-2.1,1.94-2.42,3.11-.5,1.27-.24,2.59,.5,3.88m4.06-1.12c-.29-.08-.69-.34-.9-.7-.22-.37-.14-.66-.06-.95-.02-.47,.35-.69,.72-.9,.37-.21,.56-.32,.85-.24,.58,.15,.69,.33,.9,.7,.21,.37,.42,.74,.34,1.03-.27,.4-.34,.69-.71,.9-.37,.21-.85,.25-1.15,.17"/>
            <path class="cls-1" d="M379.23,409.32c1.49,0,2.77-.43,3.61-1.5,1.07-.86,1.49-2.15,1.49-3.65s-.42-2.79-1.49-3.65c-.85-.86-2.12-1.5-3.61-1.5s-2.76,.64-3.61,1.5c-.85,.86-1.49,2.14-1.49,3.64s.64,2.79,1.48,3.65c.85,1.07,2.12,1.5,3.61,1.5m1.07-4.08c-.21,.22-.64,.43-1.07,.43s-.64-.21-.84-.43c-.43-.21-.43-.64-.43-1.07s0-.64,.21-.86c.42-.43,.64-.43,1.07-.43s.85,0,1.06,.21c.21,.43,.43,.64,.43,1.07,0,.43-.22,.86-.43,1.07"/>
            <path class="cls-1" d="M441.16,302.14c.75,1.29,1.01,2.6,.51,3.88-.22,1.35-1.12,2.36-2.42,3.11-1.3,.75-2.63,1.03-3.9,.54-1.17-.31-2.37-1.09-3.11-2.38-.74-1.29-.83-2.71-.5-3.88,.32-1.16,1.12-2.36,2.42-3.11,1.3-.75,2.73-.84,3.9-.54,1.35,.2,2.36,1.09,3.1,2.38m-3,2.96c.07-.29,.05-.76-.16-1.13-.21-.37-.5-.44-.79-.52-.4-.26-.77-.05-1.14,.17-.37,.21-.56,.32-.64,.61-.16,.58-.06,.77,.16,1.13,.21,.37,.42,.74,.71,.81,.48-.03,.77,.05,1.15-.17,.37-.21,.63-.61,.72-.9"/>
            <path class="cls-1" d="M379.26,134.52c1.48,0,2.76,.43,3.61,1.5,1.07,.86,1.49,2.14,1.49,3.64s-.42,2.79-1.49,3.65c-.85,.86-2.12,1.5-3.61,1.5s-2.77-.64-3.61-1.5c-.85-.86-1.48-2.14-1.48-3.65s.63-2.79,1.48-3.64c.85-1.07,2.12-1.5,3.61-1.5m1.06,4.08c-.21-.21-.64-.43-1.06-.43s-.64,.21-.85,.43c-.43,.21-.43,.64-.43,1.07s0,.65,.22,.86c.42,.43,.64,.43,1.06,.43s.85,0,1.06-.21c.21-.43,.42-.64,.42-1.07s-.21-.86-.42-1.07"/>
            <path class="cls-1" d="M203.06,104.29c.74-1.29,1.75-2.18,3.11-2.37,1.27-.49,2.59-.21,3.89,.54,1.31,.75,2.21,1.76,2.42,3.11,.32,1.16,.24,2.59-.5,3.88-.75,1.29-1.94,2.07-3.11,2.38-1.17,.31-2.6,.21-3.91-.54-1.3-.75-2.09-1.95-2.41-3.11-.5-1.27-.24-2.59,.5-3.88m4.06,1.12c-.29,.08-.69,.34-.9,.71-.22,.37-.14,.66-.06,.95-.02,.48,.34,.69,.72,.9,.37,.21,.56,.32,.85,.25,.59-.15,.69-.34,.9-.7,.21-.37,.43-.74,.35-1.03-.27-.4-.34-.69-.72-.9-.37-.21-.85-.25-1.15-.17"/>
            <path class="cls-1" d="M88.77,241.68c-.74-1.29-1.01-2.6-.5-3.88,.21-1.35,1.12-2.36,2.42-3.11,1.29-.75,2.62-1.02,3.9-.54,1.17,.31,2.36,1.09,3.1,2.38,.74,1.29,.82,2.71,.5,3.88-.31,1.16-1.11,2.36-2.41,3.11-1.3,.75-2.74,.84-3.91,.54-1.35-.2-2.36-1.09-3.1-2.38m3-2.96c-.08,.29-.05,.77,.15,1.13,.22,.37,.5,.45,.8,.52,.39,.26,.77,.05,1.14-.17,.37-.21,.56-.32,.64-.61,.16-.58,.06-.77-.16-1.13-.21-.37-.42-.74-.72-.81-.48,.03-.77-.05-1.14,.17-.37,.21-.64,.61-.72,.9"/>
            <path class="cls-1" d="M150.68,409.3c-1.49,0-2.76-.43-3.61-1.5-1.06-.86-1.49-2.14-1.49-3.64s.43-2.79,1.49-3.65c.85-.86,2.12-1.5,3.61-1.5s2.76,.64,3.61,1.5c.85,.86,1.49,2.14,1.49,3.65s-.64,2.79-1.49,3.64c-.85,1.07-2.12,1.5-3.61,1.5m-1.07-4.08c.22,.21,.64,.43,1.07,.43s.64-.22,.85-.43c.42-.21,.42-.64,.42-1.07s0-.64-.21-.86c-.42-.43-.64-.43-1.06-.43s-.85,0-1.07,.21c-.21,.43-.42,.64-.42,1.07s.21,.86,.42,1.07"/>
            <path class="cls-1" d="M326.87,439.53c-.74,1.29-1.75,2.17-3.1,2.38-1.28,.49-2.6,.21-3.9-.54-1.3-.75-2.21-1.76-2.42-3.11-.32-1.16-.24-2.59,.5-3.88,.74-1.29,1.94-2.07,3.11-2.38,1.16-.31,2.6-.21,3.9,.54,1.3,.75,2.1,1.95,2.42,3.11,.5,1.27,.23,2.59-.51,3.88m-4.06-1.12c.29-.08,.69-.34,.9-.7,.21-.37,.13-.66,.05-.95,.03-.48-.34-.69-.72-.9-.37-.22-.55-.32-.85-.25-.58,.15-.69,.34-.91,.7-.21,.37-.42,.74-.34,1.03,.26,.4,.34,.69,.71,.9,.37,.21,.85,.25,1.14,.17"/>
            <path class="cls-1" d="M410.56,187.92l.23,.31-2.51,3.21c-.27,.34-.66,.85-.8,1.02-.1,.47-.36,.8-.33,1.11-.1,.47-.23,.64-.19,.94,.03,.3,.07,.6,.11,.9,.21,1.8,.38,3.3,.82,4.46,.27,1.03,.64,1.59,1.15,1.98,.5,.39,1.13,.62,2.21,.63,1.07,.02,2.73-.04,4.53-.27,.3-.04,.59-.08,.9-.12,.3-.04,.43-.21,.87-.41,.3-.04,.56-.38,.99-.58,.14-.17,.53-.68,.8-1.01l2.51-3.21,1.44,.58c.17,.13,.46,.09,.63,.22,.47,.09,.63,.22,.94,.19,.46,.09,.89-.11,1.33-.32,.3-.04,.43-.21,.69-.55l15.2-19.43c.26-.34,.39-.51,.49-.98-.03-.3,.06-.77,.02-1.07-.17-.13-.2-.43-.4-.86-.17-.13-.21-.43-.54-.69l-1.04-1.09,2.51-3.21c.31-.39,.54-.69,.75-.96-.34,.05-.71,.1-1.2,.17l-4.04,.57-.42-1.44c-.06-.42-.3-.6-.33-.81-.28-.39-.52-.57-.54-.78-.25-.18-.7-.33-.94-.51-.45-.15-.67-.12-1.09-.06l-24.44,3.43c-.43,.06-.64,.09-.83,.33-.4,.27-.79,.54-.94,.99-.18,.24-.16,.45-.3,.9,.03,.21-.15,.45-.13,.66l-.22,1.53-4.03,.57c-.43,.06-1.07,.15-1.28,.18-.39,.27-.82,.33-1,.57-.4,.27-.61,.3-.79,.54-.18,.24-.37,.48-.55,.72-1.1,1.44-1.98,2.85-2.5,3.78-.52,.93-.64,1.59-.55,2.22,.09,.63,.39,1.23,1.15,1.98,.78,.96,1.99,1.86,3.45,2.95,.24,.18,.48,.36,.73,.54,.24,.18,.45,.15,.91,.3,.24,.18,.67,.12,1.12,.27l1.28-.18,4.03-.57,.16,.35Zm-.02,168.01l-.16,.35-4.04-.57c-.42-.06-1.06-.15-1.28-.18-.45,.15-.87,.09-1.12,.27-.46,.15-.67,.12-.91,.3-.24,.18-.49,.36-.73,.54-1.45,1.08-2.66,1.98-3.45,2.95-.76,.75-1.06,1.35-1.15,1.98-.09,.63,.03,1.29,.55,2.22,.52,.93,1.4,2.34,2.5,3.78,.18,.24,.37,.48,.55,.72,.18,.24,.39,.27,.79,.54,.19,.24,.61,.3,1.01,.58,.21,.03,.85,.12,1.28,.18l4.03,.57,.22,1.53c-.03,.21,.16,.45,.13,.66,.16,.45,.12,.66,.3,.9,.15,.45,.55,.72,.94,.99,.18,.24,.4,.27,.82,.33l24.44,3.44c.42,.06,.64,.09,1.09-.06,.24-.18,.69-.33,.94-.51,.03-.21,.27-.39,.54-.79,.03-.21,.28-.39,.33-.81l.42-1.44,4.03,.57c.5,.07,.87,.12,1.21,.17-.21-.27-.44-.56-.75-.96l-2.51-3.21,1.04-1.08c.33-.26,.37-.56,.54-.69,.2-.43,.24-.73,.41-.86,.04-.3-.06-.77-.03-1.07-.1-.47-.23-.64-.49-.98l-15.2-19.43c-.26-.34-.4-.51-.7-.54-.43-.21-.86-.42-1.33-.32-.3-.04-.46,.09-.93,.19-.17,.13-.46,.09-.64,.22l-1.43,.58-2.51-3.21c-.27-.34-.66-.85-.8-1.01-.43-.21-.69-.55-1-.58-.43-.21-.56-.38-.86-.42-.3-.04-.6-.07-.9-.11-1.8-.23-3.47-.29-4.53-.27-1.07,.01-1.7,.24-2.2,.63-.5,.4-.88,.96-1.15,1.98-.44,1.16-.62,2.66-.83,4.46-.03,.3-.07,.6-.1,.9-.04,.3,.1,.47,.2,.94-.04,.3,.23,.64,.33,1.1,.13,.17,.53,.68,.79,1.02l2.51,3.21-.23,.31Zm-145.59,83.99l-.39,.04-1.52-3.78c-.16-.4-.4-1-.48-1.19-.35-.32-.52-.72-.8-.84-.35-.32-.43-.52-.72-.64-.28-.12-.56-.24-.83-.36-1.66-.72-3.05-1.31-4.27-1.51-1.03-.28-1.7-.24-2.3,0-.59,.24-1.1,.68-1.64,1.59-.55,.92-1.33,2.38-2.03,4.06-.12,.28-.23,.55-.34,.84-.12,.28-.04,.47-.07,.95-.11,.28,.05,.67,0,1.15,.08,.2,.33,.8,.48,1.19l1.53,3.78-1.22,.95c-.2,.08-.32,.36-.51,.44-.32,.36-.52,.44-.63,.71-.31,.36-.35,.83-.38,1.31-.11,.28-.03,.47,.12,.87l9.24,22.87c.16,.39,.24,.6,.6,.92,.27,.12,.63,.44,.91,.55,.19-.08,.48,.04,.95,.08,.2-.08,.47,.04,.86-.12l1.46-.36,1.52,3.78c.19,.46,.33,.81,.45,1.13,.13-.32,.27-.67,.46-1.13l1.53-3.78,1.45,.36c.4,.16,.67,.04,.87,.12,.48-.04,.75-.16,.95-.08,.28-.12,.63-.44,.91-.55,.36-.32,.44-.52,.6-.92l9.25-22.87c.16-.4,.24-.59,.12-.88-.03-.47-.07-.95-.38-1.31-.12-.28-.31-.36-.63-.72-.19-.08-.31-.36-.51-.44l-1.22-.95,1.53-3.78c.16-.4,.4-1,.48-1.19-.03-.48,.13-.88,0-1.15-.04-.47,.04-.68-.07-.95-.11-.28-.23-.56-.35-.83-.7-1.67-1.48-3.14-2.03-4.06-.55-.91-1.06-1.35-1.65-1.59-.59-.23-1.26-.28-2.29,0-1.23,.2-2.61,.79-4.28,1.51-.28,.12-.56,.24-.83,.36-.28,.12-.36,.32-.72,.64-.27,.12-.44,.51-.79,.84-.08,.2-.32,.8-.48,1.19l-1.53,3.78-.38-.04Zm-145.57-84.02l-.23-.32,2.51-3.21c.27-.34,.66-.84,.8-1.01,.09-.47,.36-.81,.32-1.11,.1-.47,.23-.64,.2-.94-.03-.3-.07-.6-.1-.9-.21-1.8-.39-3.3-.83-4.46-.27-1.03-.64-1.59-1.15-1.98-.5-.39-1.13-.62-2.2-.63-1.07-.02-2.73,.04-4.53,.27-.3,.04-.6,.07-.89,.11-.3,.04-.44,.21-.87,.41-.3,.04-.57,.38-1,.58-.13,.17-.53,.68-.8,1.01l-2.51,3.21-1.43-.58c-.17-.13-.47-.09-.64-.22-.47-.09-.64-.22-.93-.19-.47-.09-.9,.11-1.33,.32-.3,.04-.43,.21-.69,.54l-15.2,19.43c-.27,.34-.4,.51-.5,.98,.03,.3-.06,.77-.02,1.07,.17,.13,.2,.43,.41,.86,.17,.13,.2,.43,.53,.69l1.04,1.09-2.52,3.21c-.31,.4-.53,.69-.74,.96,.34-.04,.7-.1,1.2-.17l4.04-.57,.42,1.44c.06,.42,.3,.6,.33,.81,.27,.39,.51,.57,.54,.78,.24,.18,.69,.33,.93,.51,.46,.15,.67,.12,1.09,.06l24.43-3.44c.42-.06,.64-.09,.82-.33,.39-.27,.79-.54,.94-.99,.18-.24,.15-.45,.31-.9-.04-.21,.15-.45,.12-.66l.22-1.53,4.04-.57c.42-.06,1.06-.15,1.28-.18,.4-.27,.82-.33,1-.57,.4-.27,.61-.3,.8-.54,.18-.24,.37-.48,.55-.72,1.09-1.44,1.98-2.85,2.5-3.78,.52-.93,.64-1.59,.56-2.22-.09-.63-.39-1.23-1.14-1.98-.79-.96-2-1.87-3.45-2.95-.24-.18-.48-.36-.72-.54-.25-.18-.45-.15-.91-.3-.24-.18-.66-.12-1.12-.27-.21,.03-.85,.12-1.27,.18l-4.04,.57-.16-.35Zm.01-168.01l.16-.35,4.04,.57c.42,.06,1.06,.15,1.27,.18,.46-.15,.88-.09,1.12-.27,.45-.15,.66-.12,.91-.3,.24-.18,.48-.36,.72-.54,1.46-1.08,2.66-1.98,3.45-2.95,.76-.75,1.06-1.35,1.15-1.98,.09-.63-.04-1.29-.56-2.22-.52-.93-1.4-2.34-2.5-3.78-.18-.24-.37-.48-.55-.72-.18-.24-.4-.27-.79-.54-.18-.24-.61-.3-1.01-.57-.21-.03-.85-.11-1.27-.18l-4.04-.57-.21-1.53c.03-.21-.15-.45-.13-.66-.15-.45-.13-.66-.31-.9-.16-.45-.55-.72-.95-.99-.18-.24-.39-.27-.82-.33l-24.43-3.44c-.42-.06-.64-.09-1.09,.06-.24,.18-.7,.33-.94,.51-.03,.21-.27,.39-.54,.78-.03,.21-.27,.39-.33,.81l-.42,1.44-4.04-.57c-.5-.07-.86-.12-1.2-.17,.21,.27,.44,.56,.75,.96l2.51,3.21-1.04,1.08c-.34,.26-.37,.56-.54,.69-.2,.43-.23,.73-.4,.86-.03,.3,.06,.77,.03,1.07,.09,.47,.22,.64,.49,.98l15.19,19.43c.27,.34,.4,.5,.7,.54,.43,.21,.86,.41,1.33,.32,.3,.04,.46-.09,.93-.19,.17-.13,.46-.09,.64-.22l1.43-.58,2.51,3.21c.26,.34,.66,.84,.79,1.01,.44,.2,.7,.54,1,.58,.43,.2,.56,.37,.86,.41,.3,.04,.6,.07,.89,.11,1.8,.23,3.46,.29,4.53,.27,1.06-.02,1.7-.24,2.2-.63,.5-.39,.88-.95,1.15-1.98,.44-1.16,.61-2.66,.82-4.46,.03-.3,.07-.6,.1-.9,.04-.3-.09-.47-.19-.94,.03-.3-.23-.64-.33-1.1-.13-.17-.53-.68-.79-1.02l-2.51-3.21,.23-.31Zm145.59-83.99l.39-.04,1.52,3.78c.16,.4,.4,1,.48,1.2,.36,.31,.52,.72,.79,.84,.36,.31,.44,.51,.72,.63,.28,.12,.56,.24,.83,.36,1.67,.72,3.05,1.31,4.28,1.51,1.03,.28,1.7,.24,2.29,0,.59-.24,1.1-.68,1.65-1.59,.54-.92,1.33-2.39,2.03-4.06,.11-.28,.23-.56,.35-.83,.11-.28,.03-.48,.07-.96,.11-.28-.05-.68-.01-1.15-.08-.2-.32-.8-.48-1.2l-1.52-3.78,1.22-.96c.19-.08,.31-.35,.51-.44,.31-.36,.51-.44,.62-.72,.31-.36,.35-.84,.39-1.31,.11-.28,.03-.48-.13-.88l-9.23-22.87c-.17-.4-.25-.6-.6-.91-.27-.12-.64-.44-.91-.56-.2,.08-.47-.04-.95-.08-.2,.08-.48-.04-.87,.12l-1.46,.36-1.53-3.78c-.18-.46-.33-.81-.45-1.12-.13,.32-.27,.66-.45,1.12l-1.53,3.78-1.46-.36c-.4-.16-.67-.04-.87-.12-.47,.04-.75,.16-.95,.08-.27,.12-.64,.44-.91,.56-.36,.32-.44,.52-.6,.92l-9.24,22.87c-.16,.4-.24,.6-.13,.88,.04,.48,.07,.95,.39,1.31,.11,.28,.32,.36,.62,.72,.2,.08,.32,.36,.52,.44l1.21,.95-1.52,3.78c-.17,.4-.4,.99-.49,1.19,.04,.48-.12,.87,0,1.15,.03,.48-.05,.68,.07,.95,.11,.28,.23,.56,.35,.84,.7,1.67,1.48,3.14,2.03,4.06,.54,.91,1.05,1.35,1.64,1.59,.6,.24,1.27,.28,2.29,0,1.23-.19,2.62-.8,4.28-1.51,.27-.12,.56-.24,.83-.36,.28-.12,.36-.32,.72-.64,.27-.12,.43-.52,.8-.83,.08-.2,.32-.8,.48-1.2l1.53-3.78,.38,.04Zm183.2,62.31c.01,.11,.02,.23,.04,.37-.1,.47-.02,1.07-.25,1.71-.1,.47-.33,1.11-.55,1.75-.53,.67-.76,1.31-1.29,1.99l-.66,.84c.37,.56,.44,1.16,.65,1.59,.27,1.03,.38,1.93,.18,2.87-.2,.94-.56,1.74-1.21,2.59l-15.2,19.43c-.66,.85-1.36,1.39-2.39,1.67-.86,.42-1.76,.53-2.82,.51-.6,.08-1.06-.01-1.54-.11l-.79,1.01c-.53,.68-1.09,1.05-1.49,1.56-.57,.38-1.13,.75-1.69,1.13-.44,.21-1.17,.45-1.47,.49-.59,.08-1.03,.28-1.33,.32-2.39,.3-4.06,.36-5.42,.39-1.7-.24-2.97-.69-4.15-1.6-1.17-.92-1.91-2.04-2.55-3.63-.31-1.33-.65-2.96-.77-5.23-.2-.43-.1-.9-.31-1.33,.1-.47,.16-1.24,.26-1.71l.36-.99-1.04-.19c-.45-.15-1.15-.48-1.6-.64-.27-.39-.73-.54-1-.93-1.91-1.23-3.14-2.34-4.14-3.28-1.06-1.35-1.66-2.55-1.87-4.02-.21-1.47,.04-2.79,.68-4.38,.7-1.17,1.59-2.58,3.05-4.5,.18-.24,.58-.51,.94-.99,.18-.24,.76-.75,1.16-1.02,.61-.3,1.22-.6,1.83-.9,.63-.09,1.24-.39,2.09-.51l1.28-.18c.16-.45,.3-.9,.67-1.38,.52-.93,1.07-1.65,1.86-2.19,.76-.75,1.58-1.08,2.64-1.23l24.43-3.43c1.07-.15,1.94-.06,2.85,.24,.91,.3,1.63,.84,2.39,1.59,.28,.39,.76,.75,1.06,1.35l1.06-.15c.85-.12,1.52,0,2.37-.12,.66,.12,1.33,.24,1.79,.39,.66,.12,1.15,.48,1.6,.63,.11,.08,.21,.15,.3,.21m-.02,211.42c-.09,.06-.19,.13-.3,.21-.45,.15-.94,.51-1.6,.63-.46,.15-1.12,.27-1.79,.39-.85-.12-1.51,0-2.37-.12l-1.06-.15c-.3,.6-.79,.96-1.06,1.35-.76,.75-1.48,1.29-2.39,1.59-.91,.3-1.79,.39-2.85,.24l-24.43-3.44c-1.06-.15-1.88-.48-2.65-1.23-.79-.54-1.33-1.26-1.86-2.19-.37-.48-.52-.93-.67-1.38l-1.28-.18c-.85-.12-1.45-.42-2.1-.51-.61-.3-1.21-.6-1.82-.9-.39-.27-.97-.78-1.16-1.02-.36-.48-.76-.75-.95-.99-1.46-1.92-2.34-3.33-3.05-4.5-.64-1.59-.89-2.91-.68-4.39,.21-1.47,.81-2.67,1.87-4.02,1-.93,2.24-2.04,4.15-3.27,.27-.39,.73-.54,1-.93,.46-.15,1.15-.48,1.61-.63,.34-.06,.69-.12,1.04-.19-.12-.33-.24-.66-.36-.99-.1-.47-.16-1.24-.25-1.71,.2-.43,.11-.9,.31-1.33,.12-2.27,.46-3.9,.77-5.23,.64-1.59,1.38-2.71,2.55-3.63,1.17-.92,2.45-1.36,4.15-1.6,1.36,.02,3.03,.08,5.42,.39,.3,.04,.73,.25,1.33,.32,.3,.04,1.03,.29,1.46,.49,.57,.38,1.13,.75,1.7,1.13,.4,.51,.96,.88,1.49,1.56l.79,1.01c.46-.09,.93-.19,1.54-.11,1.07-.02,1.96,.1,2.83,.51,1.03,.28,1.72,.83,2.38,1.67l15.2,19.43c.66,.84,1.02,1.65,1.21,2.58,.19,.94,.09,1.84-.19,2.87-.2,.43-.27,1.03-.64,1.59l.66,.84c.53,.68,.76,1.31,1.29,1.99,.22,.64,.45,1.27,.55,1.75,.23,.64,.16,1.23,.26,1.7-.02,.14-.03,.25-.04,.37m-183.22,105.69c-.1-.05-.21-.09-.33-.15-.36-.32-.91-.56-1.35-1.08-.35-.31-.8-.83-1.24-1.35-.31-.8-.76-1.31-1.08-2.11l-.4-1c-.68,.04-1.23-.2-1.7-.24-1.03-.28-1.86-.63-2.58-1.27-.71-.63-1.23-1.35-1.63-2.35l-9.23-22.87c-.4-1-.53-1.87-.26-2.9,.07-.95,.42-1.79,.97-2.71,.23-.56,.55-.92,.86-1.27l-.48-1.19c-.31-.79-.36-1.47-.61-2.07-.04-.67-.09-1.35-.13-2.03,.04-.48,.19-1.23,.31-1.51,.23-.56,.27-1.04,.38-1.31,.93-2.23,1.71-3.7,2.38-4.89,1.06-1.35,2.08-2.23,3.46-2.78,1.38-.56,2.72-.64,4.42-.4,1.31,.4,2.89,.92,4.91,1.95,.47,.04,.83,.35,1.31,.4,.36,.32,.99,.75,1.35,1.07,.23,.27,.46,.54,.68,.8,.23-.26,.46-.54,.68-.8,.36-.32,1-.76,1.35-1.07,.48-.04,.83-.36,1.3-.4,2.02-1.04,3.6-1.55,4.91-1.95,1.71-.24,3.05-.16,4.42,.4,1.38,.56,2.4,1.43,3.46,2.78,.66,1.19,1.44,2.66,2.38,4.89,.11,.27,.15,.75,.38,1.31,.12,.28,.27,1.03,.31,1.51-.05,.67-.09,1.35-.13,2.03-.24,.59-.29,1.27-.61,2.07l-.48,1.19c.32,.36,.62,.72,.86,1.27,.55,.91,.89,1.75,.97,2.71,.27,1.03,.15,1.91-.26,2.9l-9.24,22.87c-.4,1-.92,1.71-1.63,2.35-.72,.64-1.55,.99-2.58,1.27-.48,.04-1.03,.28-1.7,.24l-.4,.99c-.32,.79-.76,1.31-1.08,2.11-.43,.52-.88,1.03-1.23,1.35-.44,.52-.99,.76-1.35,1.08-.13,.05-.23,.1-.34,.15m-183.19-105.73c-.02-.11-.03-.23-.05-.36,.1-.47,.03-1.07,.26-1.71,.1-.47,.33-1.11,.56-1.74,.53-.68,.76-1.31,1.29-1.99l.66-.85c-.37-.56-.44-1.16-.64-1.59-.27-1.03-.38-1.93-.19-2.87,.19-.94,.56-1.74,1.22-2.59l15.2-19.43c.66-.84,1.36-1.39,2.39-1.67,.86-.42,1.76-.53,2.83-.52,.6-.08,1.07,.02,1.53,.11l.8-1.01c.53-.68,1.09-1.05,1.48-1.56,.57-.38,1.13-.76,1.7-1.13,.43-.21,1.16-.46,1.46-.49,.6-.08,1.03-.28,1.33-.32,2.4-.31,4.06-.37,5.43-.39,1.7,.24,2.97,.69,4.14,1.6,1.17,.92,1.92,2.04,2.56,3.63,.31,1.33,.65,2.96,.76,5.23,.21,.43,.11,.9,.31,1.33-.1,.47-.15,1.24-.26,1.71-.11,.33-.23,.66-.35,.99l1.04,.19c.46,.15,1.15,.48,1.61,.63,.27,.39,.73,.54,1,.93,1.91,1.23,3.14,2.34,4.14,3.28,1.06,1.35,1.66,2.56,1.87,4.02,.21,1.47-.04,2.79-.69,4.38-.7,1.17-1.59,2.58-3.05,4.5-.18,.24-.58,.51-.94,.99-.18,.24-.76,.75-1.16,1.02-.61,.3-1.21,.6-1.82,.9-.64,.09-1.25,.39-2.1,.51l-1.27,.18c-.15,.45-.31,.9-.68,1.38-.52,.93-1.06,1.65-1.86,2.19-.76,.75-1.58,1.08-2.65,1.23l-24.44,3.44c-1.06,.15-1.94,.06-2.85-.25-.9-.3-1.63-.84-2.39-1.59-.27-.39-.76-.75-1.06-1.35l-1.06,.15c-.85,.12-1.52,0-2.37,.12-.67-.12-1.33-.24-1.79-.4-.66-.12-1.15-.48-1.6-.63-.11-.08-.2-.15-.29-.22m.02-211.42c.09-.07,.18-.14,.3-.22,.45-.15,.93-.51,1.6-.63,.45-.15,1.12-.27,1.79-.39,.85,.12,1.52,0,2.37,.12l1.06,.15c.3-.6,.78-.96,1.05-1.35,.76-.75,1.48-1.29,2.39-1.59,.91-.3,1.79-.39,2.85-.24l24.44,3.44c1.07,.15,1.88,.48,2.65,1.23,.79,.54,1.34,1.26,1.86,2.19,.37,.48,.52,.93,.68,1.38l1.27,.18c.85,.12,1.46,.42,2.1,.51,.61,.3,1.21,.6,1.82,.9,.4,.27,.97,.78,1.16,1.02,.37,.48,.76,.75,.95,.99,1.46,1.92,2.35,3.33,3.05,4.5,.64,1.59,.89,2.91,.68,4.39-.21,1.47-.81,2.67-1.87,4.02-1,.93-2.24,2.04-4.15,3.27-.27,.39-.72,.54-1,.93-.45,.15-1.15,.48-1.6,.63-.34,.06-.69,.13-1.04,.19,.12,.33,.24,.66,.36,.99,.09,.47,.16,1.24,.25,1.71-.2,.43-.1,.9-.3,1.33-.11,2.27-.46,3.9-.77,5.23-.65,1.59-1.39,2.71-2.56,3.63-1.17,.91-2.44,1.36-4.14,1.6-1.37-.02-3.03-.09-5.43-.39-.3-.04-.73-.24-1.33-.32-.3-.04-1.03-.29-1.46-.49-.57-.38-1.13-.75-1.69-1.13-.4-.51-.96-.88-1.49-1.56l-.8-1.01c-.46,.09-.93,.18-1.53,.11-1.07,.01-1.97-.1-2.83-.51-1.03-.28-1.72-.83-2.39-1.67l-15.2-19.43c-.66-.85-1.02-1.65-1.21-2.59-.19-.94-.09-1.83,.19-2.87,.2-.43,.27-1.03,.64-1.59l-.66-.84c-.53-.68-.76-1.31-1.29-1.99-.23-.64-.46-1.28-.55-1.74-.23-.64-.15-1.24-.25-1.71,.01-.13,.03-.25,.04-.37M264.99,60.48c.1,.05,.21,.09,.34,.15,.36,.32,.91,.56,1.35,1.07,.36,.32,.8,.84,1.24,1.35,.32,.8,.75,1.31,1.08,2.11l.41,1c.67-.04,1.22,.2,1.7,.24,1.03,.28,1.86,.64,2.58,1.27,.72,.64,1.23,1.35,1.63,2.34l9.24,22.87c.4,.99,.53,1.87,.26,2.9-.08,.96-.42,1.79-.97,2.71-.23,.55-.54,.91-.86,1.27l.48,1.19c.32,.8,.37,1.47,.61,2.07,.04,.68,.09,1.35,.13,2.03-.03,.48-.19,1.23-.3,1.51-.24,.56-.28,1.03-.39,1.31-.93,2.23-1.71,3.7-2.38,4.89-1.06,1.35-2.08,2.22-3.46,2.78-1.38,.55-2.72,.63-4.42,.39-1.31-.4-2.89-.92-4.91-1.95-.47-.04-.83-.36-1.3-.4-.36-.32-1-.76-1.35-1.07-.23-.27-.45-.54-.68-.81-.23,.27-.45,.54-.68,.81-.35,.31-.99,.75-1.35,1.07-.48,.04-.84,.36-1.31,.39-2.02,1.04-3.6,1.55-4.91,1.95-1.7,.24-3.04,.16-4.42-.4-1.38-.56-2.4-1.43-3.45-2.78-.67-1.19-1.45-2.66-2.38-4.89-.11-.28-.15-.76-.38-1.31-.11-.28-.27-1.04-.3-1.51,.04-.68,.09-1.35,.13-2.03,.24-.6,.28-1.27,.61-2.07l.48-1.19c-.31-.36-.63-.72-.86-1.27-.55-.92-.9-1.75-.97-2.7-.27-1.04-.14-1.91,.26-2.91l9.24-22.87c.4-.99,.92-1.71,1.64-2.35,.72-.64,1.55-.99,2.58-1.27,.47-.04,1.02-.28,1.7-.23l.4-1c.32-.8,.76-1.31,1.08-2.11,.44-.52,.88-1.03,1.24-1.35,.44-.52,.99-.76,1.35-1.07,.13-.05,.23-.1,.34-.15"/>
            <path class="cls-1" d="M426.15,271.92c.07-.24,.05-.43,.13-.57l.37-1.5-3.53-2.03c-.37-.21-.93-.54-1.11-.64-.27-.4-.64-.61-.72-.9-.26-.4-.45-.5-.53-.8-.08-.29-.16-.58-.24-.88-.48-1.74-.87-3.2-.9-4.44-.13-1.06,0-1.71,.31-2.27,.32-.55,.83-.99,1.81-1.41,.98-.42,2.55-.98,4.3-1.44,.29-.08,.58-.15,.88-.23,.29-.07,.47,.03,.96,.06,.29-.08,.66,.14,1.14,.17,.18,.11,.74,.43,1.12,.64l3.53,2.04,1.11-1.07c.11-.19,.4-.26,.51-.44,.4-.26,.5-.44,.8-.52,.4-.26,.87-.23,1.35-.2,.29-.08,.48,.03,.85,.25l21.37,12.33c.37,.21,.56,.32,.83,.72,.07,.29,.34,.69,.42,.98-.11,.19-.03,.48-.06,.95-.11,.18-.03,.48-.24,.84l-.14,.37,.14,.37c.21,.37,.13,.66,.24,.84,.03,.48-.05,.77,.06,.95-.08,.29-.35,.69-.43,.98-.26,.4-.45,.5-.82,.72l-21.37,12.33c-.37,.22-.56,.32-.85,.25-.48,.03-.96,.06-1.36-.2-.29-.07-.39-.26-.8-.52-.11-.18-.4-.26-.5-.44l-1.11-1.07-3.53,2.04c-.37,.22-.93,.54-1.12,.64-.48,.03-.85,.25-1.14,.17-.48,.03-.66,.14-.96,.06-.29-.08-.58-.15-.88-.23-1.75-.46-3.32-1.02-4.3-1.44-.98-.42-1.48-.86-1.8-1.41-.32-.55-.45-1.21-.32-2.27,.03-1.24,.43-2.7,.91-4.44,.08-.29,.16-.58,.24-.87,.07-.29,.26-.4,.53-.8,.08-.29,.45-.5,.72-.9,.18-.1,.74-.43,1.11-.64l3.53-2.04-.37-1.5c-.08-.14-.06-.33-.13-.57m-80.6,139.5c.24-.06,.39-.18,.55-.18l1.48-.43v-5.36c.21-.43,.21-.86,.43-1.07,.21-.43,.21-.64,.42-.86,.21-.21,.42-.43,.64-.64,1.28-1.29,2.34-2.36,3.4-3,.85-.64,1.5-.86,2.13-.86s1.27,.21,2.12,.86c.85,.64,2.12,1.71,3.4,3,.21,.21,.42,.43,.64,.64,.21,.21,.21,.43,.42,.86,.21,.21,.21,.64,.42,1.07v5.36l1.49,.43c.21,0,.42,.21,.64,.21,.42,.21,.64,.21,.85,.43,.43,.21,.64,.64,.85,1.07,.21,.21,.21,.43,.21,.86v24.66c0,.43,0,.64-.22,1.07-.21,.22-.43,.65-.64,.86-.21,0-.42,.21-.85,.43-.21,0-.42,.21-.85,.21l-.4,.05-.25,.31c-.21,.37-.5,.44-.61,.63-.39,.26-.69,.34-.8,.52-.29,.07-.77,.04-1.06,.12-.48-.03-.66-.14-1.04-.35l-21.37-12.33c-.37-.22-.56-.32-.64-.62-.26-.4-.53-.8-.5-1.27-.08-.29,.03-.48,.05-.95,.11-.18,.03-.47,.14-.66l.37-1.5-3.53-2.04c-.37-.21-.93-.54-1.11-.64-.27-.4-.64-.61-.72-.9-.26-.4-.45-.51-.53-.8-.08-.29-.16-.58-.24-.87-.48-1.75-.77-3.39-.9-4.44-.14-1.06,0-1.71,.31-2.27,.32-.55,.83-1,1.8-1.41,1.09-.6,2.56-.98,4.31-1.44,.29-.08,.58-.16,.87-.23,.29-.08,.48,.03,.96,.06,.29-.07,.66,.14,1.15,.17,.18,.11,.74,.43,1.11,.64l3.54,2.04,1.11-1.07c.08-.14,.26-.21,.43-.39m-161.18-.02c.17,.18,.35,.26,.43,.39l1.11,1.07,3.53-2.04c.37-.21,.93-.54,1.12-.64,.48-.03,.85-.24,1.14-.17,.47-.03,.66-.14,.96-.06,.29,.08,.58,.15,.88,.23,1.75,.46,3.21,.84,4.3,1.44,.98,.41,1.48,.86,1.8,1.41,.32,.55,.45,1.21,.32,2.27-.13,1.06-.42,2.7-.9,4.44-.08,.29-.16,.58-.24,.88-.08,.29-.26,.4-.53,.79-.09,.29-.46,.51-.72,.9-.18,.11-.74,.43-1.12,.64l-3.53,2.04,.37,1.5c.11,.19,.03,.48,.13,.66,.03,.47,.13,.66,.05,.95,.03,.47-.24,.87-.5,1.27-.08,.29-.26,.4-.64,.61l-21.37,12.33c-.37,.21-.56,.32-1.04,.35-.29-.07-.77-.05-1.06-.12-.11-.18-.4-.26-.8-.52-.11-.19-.4-.26-.61-.63l-.25-.31-.39-.05c-.42,0-.64-.21-.85-.21-.42-.21-.64-.43-.85-.43-.21-.21-.42-.64-.64-.86-.21-.43-.21-.64-.21-1.07v-24.66c0-.43,0-.64,.21-.86,.22-.43,.43-.86,.85-1.07,.22-.22,.43-.22,.85-.43,.21,0,.43-.21,.64-.21l1.49-.43v-5.36c.21-.43,.21-.86,.42-1.07,.22-.43,.22-.64,.42-.86,.22-.21,.43-.43,.64-.64,1.27-1.29,2.54-2.36,3.4-3,.85-.64,1.49-.86,2.13-.86s1.27,.22,2.12,.86c1.07,.64,2.13,1.72,3.4,3,.22,.21,.42,.43,.64,.64,.21,.21,.21,.43,.42,.86,.21,.21,.21,.64,.42,1.07v5.36l1.49,.43c.15,0,.31,.12,.55,.17m-80.58-139.51c-.06,.24-.04,.43-.12,.57l-.37,1.5,3.53,2.04c.37,.21,.93,.54,1.12,.64,.26,.4,.64,.61,.72,.9,.27,.4,.45,.5,.53,.8,.08,.29,.16,.58,.24,.87,.48,1.75,.87,3.2,.9,4.44,.13,1.06,0,1.71-.32,2.27-.32,.55-.82,1-1.8,1.41-.99,.41-2.55,.98-4.3,1.44-.3,.08-.58,.15-.88,.23-.29,.08-.48-.03-.96-.06-.29,.08-.66-.14-1.14-.17-.19-.11-.74-.43-1.12-.64l-3.53-2.04-1.12,1.07c-.11,.18-.39,.26-.5,.45-.4,.26-.5,.44-.8,.52-.4,.26-.88,.23-1.36,.2-.29,.07-.47-.03-.85-.25l-21.37-12.34c-.37-.21-.56-.32-.82-.72-.08-.29-.34-.69-.42-.98,.11-.18,.02-.48,.05-.95,.11-.19,.03-.48,.24-.84l.15-.37-.15-.37c-.21-.37-.13-.66-.24-.84-.02-.48,.06-.77-.05-.95,.08-.29,.34-.69,.42-.98,.27-.4,.45-.51,.82-.72l21.37-12.33c.38-.21,.56-.32,.85-.24,.48-.03,.96-.06,1.35,.2,.29,.08,.4,.26,.8,.52,.11,.18,.4,.26,.5,.44l1.12,1.07,3.53-2.04c.37-.21,.93-.54,1.12-.64,.48-.03,.85-.24,1.14-.17,.48-.03,.67-.14,.96-.06,.29,.08,.58,.15,.88,.23,1.75,.46,3.32,1.03,4.3,1.44,.98,.42,1.49,.86,1.81,1.41,.31,.55,.45,1.21,.31,2.27-.02,1.24-.42,2.7-.9,4.44-.08,.29-.16,.58-.24,.87s-.26,.4-.53,.8c-.08,.29-.45,.5-.72,.9-.18,.11-.74,.43-1.12,.65l-3.53,2.04,.37,1.5c.08,.13,.06,.33,.12,.57m80.6-139.5c-.24,.06-.4,.17-.55,.17l-1.49,.43v5.36c-.21,.43-.21,.86-.42,1.07-.21,.43-.21,.65-.42,.86-.21,.21-.42,.43-.64,.64-1.28,1.29-2.34,2.36-3.4,3-.85,.64-1.49,.86-2.13,.86s-1.28-.21-2.13-.86c-.85-.64-2.12-1.72-3.4-3.01-.21-.21-.42-.43-.63-.64-.21-.21-.21-.43-.42-.86-.21-.22-.21-.64-.42-1.07v-5.36l-1.48-.43c-.21,0-.42-.21-.64-.21-.43-.21-.64-.21-.85-.43-.42-.22-.64-.65-.85-1.08-.21-.21-.21-.43-.21-.86v-24.66c0-.43,0-.64,.22-1.07,.21-.21,.42-.64,.64-.86,.21,0,.42-.21,.85-.43,.21,0,.42-.22,.85-.22l.39-.06,.25-.31c.21-.37,.5-.44,.61-.63,.4-.26,.69-.34,.8-.52,.29-.08,.77-.05,1.07-.12,.47,.03,.66,.14,1.03,.35l21.37,12.33c.37,.21,.56,.32,.64,.62,.27,.39,.53,.8,.5,1.27,.08,.29-.03,.48-.05,.95-.1,.18-.02,.48-.13,.66l-.37,1.5,3.53,2.04c.37,.21,.93,.54,1.12,.64,.26,.4,.64,.61,.72,.9,.26,.4,.45,.51,.53,.8,.08,.29,.16,.58,.24,.87,.47,1.75,.77,3.39,.9,4.44,.13,1.06,0,1.72-.32,2.27-.32,.55-.82,1-1.8,1.41-1.09,.6-2.55,.98-4.3,1.44-.29,.08-.58,.15-.88,.23-.29,.07-.48-.03-.96-.06-.29,.08-.66-.14-1.14-.17-.19-.11-.75-.43-1.12-.64l-3.53-2.04-1.12,1.07c-.07,.13-.25,.21-.43,.39m161.18,.01c-.17-.18-.36-.25-.44-.39l-1.11-1.07-3.53,2.04c-.37,.21-.93,.54-1.12,.64-.48,.03-.85,.24-1.15,.17-.48,.03-.66,.14-.95,.06-.29-.08-.58-.15-.88-.23-1.75-.46-3.21-.84-4.3-1.44-.98-.41-1.49-.86-1.8-1.41-.32-.55-.45-1.21-.32-2.27,.13-1.06,.42-2.7,.91-4.44l.24-.87c.08-.29,.26-.4,.53-.8,.08-.29,.45-.51,.72-.9,.18-.11,.74-.43,1.12-.64l3.53-2.04-.38-1.5c-.1-.18-.02-.47-.13-.66-.03-.47-.13-.66-.05-.95-.03-.48,.24-.87,.5-1.27,.08-.29,.26-.4,.64-.61l21.37-12.33c.37-.21,.56-.32,1.04-.35,.29,.08,.77,.05,1.07,.13,.1,.18,.4,.26,.8,.52,.1,.18,.4,.26,.61,.63l.25,.31,.39,.06c.42,0,.64,.22,.85,.22,.42,.21,.63,.43,.85,.43,.21,.21,.42,.64,.64,.86,.21,.43,.21,.65,.21,1.08v24.66c0,.43,0,.64-.21,.86-.21,.43-.42,.86-.85,1.07-.22,.22-.42,.22-.85,.43-.21,0-.42,.21-.64,.21l-1.48,.43v5.36c-.22,.43-.22,.85-.43,1.07-.21,.43-.21,.64-.42,.86-.21,.21-.42,.43-.64,.64-1.28,1.29-2.55,2.36-3.4,3-.85,.64-1.49,.86-2.13,.86s-1.27-.21-2.12-.86c-1.07-.64-2.13-1.71-3.4-3-.21-.21-.42-.43-.64-.64-.21-.22-.21-.43-.42-.86-.21-.22-.21-.64-.42-1.07v-5.36l-1.49-.43c-.15,0-.31-.11-.55-.18m120.3,139.51c-.12-.09-.25-.17-.39-.25l-.93-.54c.13-.66-.03-1.24,0-1.72-.13-1.06-.37-1.93-.9-2.73-.53-.8-1.16-1.41-2.1-1.95l-21.36-12.34c-.93-.54-1.78-.78-2.85-.66-.96-.06-1.83,.17-2.81,.58-.58,.15-.98,.42-1.38,.68l-1.12-.64c-.74-.43-1.4-.57-1.96-.89-.66-.14-1.32-.28-1.99-.41-.48-.03-1.25,.02-1.54,.09-.58,.15-1.06,.12-1.35,.2-2.34,.61-3.91,1.18-5.18,1.67-1.49,.86-2.5,1.75-3.24,3.03-.74,1.29-1.01,2.6-1.01,4.32,.21,1.35,.5,2.99,1.24,5.13-.02,.48,.24,.87,.21,1.35,.27,.4,.61,1.09,.88,1.49,.45,.5,.91,1.01,1.35,1.52,.45,.51,1.01,.83,1.75,1.26l1.12,.64c0,.05,0,.1-.01,.15,0,.05,0,.1,.01,.15l-1.12,.64c-.74,.43-1.3,.75-1.75,1.26-.45,.51-.9,1.01-1.35,1.52-.26,.4-.61,1.09-.88,1.49,.03,.48-.24,.87-.21,1.35-.75,2.15-1.04,3.78-1.24,5.13,0,1.72,.26,3.04,1,4.32,.74,1.29,1.75,2.18,3.24,3.03,1.27,.49,2.84,1.06,5.18,1.67,.29,.08,.77,.05,1.35,.2,.29,.08,1.07,.13,1.54,.09,.67-.14,1.33-.28,1.99-.42,.56-.32,1.22-.46,1.96-.89l1.11-.64c.4,.26,.8,.52,1.38,.68,.99,.41,1.86,.64,2.82,.58,1.06,.12,1.91-.12,2.84-.66l21.36-12.33c.93-.54,1.57-1.15,2.1-1.94,.53-.8,.77-1.67,.9-2.73-.03-.48,.13-1.06,0-1.71l.93-.54c.14-.08,.27-.16,.39-.25m-100.47,173.88c.01-.15,.02-.3,.02-.46v-1.07c.64-.21,1.06-.64,1.48-.86,.85-.64,1.49-1.29,1.91-2.14,.43-.86,.64-1.72,.64-2.79v-24.66c0-1.07-.21-1.93-.85-2.79-.42-.86-1.06-1.5-1.91-2.14-.43-.43-.85-.64-1.28-.86v-1.29c0-.86-.21-1.5-.21-2.14-.21-.64-.42-1.29-.64-1.93-.21-.43-.64-1.07-.85-1.29-.42-.43-.64-.86-.85-1.07-1.7-1.72-2.97-2.79-4.04-3.65-1.48-.86-2.76-1.29-4.25-1.29-1.49,0-2.76,.43-4.25,1.29-1.06,.86-2.34,1.93-3.83,3.64-.42,.21-.63,.64-1.06,.86-.21,.43-.64,1.07-.85,1.5-.22,.64-.43,1.29-.64,1.93-.21,.64-.21,1.29-.21,2.14v1.29s-.09,.04-.14,.07c-.05,.03-.09,.06-.13,.09l-1.11-.65c-.75-.43-1.3-.75-1.97-.89-.66-.14-1.33-.27-1.99-.41-.47-.03-1.24,.02-1.72-.01-.39,.26-.88,.23-1.27,.49-2.23,.43-3.8,1-5.08,1.49-1.48,.86-2.5,1.75-3.24,3.03-.74,1.29-1.01,2.61-1.01,4.32,.21,1.35,.51,2.99,1.15,5.32,.08,.29,.34,.69,.5,1.27,.08,.29,.42,.98,.69,1.38,.45,.51,.91,1.01,1.36,1.52,.56,.32,1.01,.83,1.75,1.26l1.11,.64c-.03,.47-.05,.95,.1,1.53,.14,1.06,.37,1.93,.9,2.72,.42,.98,1.06,1.59,1.99,2.13l21.36,12.33c.93,.53,1.78,.78,2.74,.84,.95,.06,1.83-.17,2.81-.58,.4-.26,.98-.41,1.49-.86l.93,.54c.14,.08,.27,.15,.41,.21m-200.9-.02c.13-.06,.27-.13,.41-.21l.93-.54c.5,.45,1.09,.6,1.48,.86,.99,.41,1.86,.64,2.81,.58,.96-.06,1.8-.31,2.74-.84l21.37-12.32c.93-.54,1.56-1.15,1.99-2.13,.53-.8,.77-1.67,.9-2.73,.16-.58,.13-1.06,.11-1.53l1.11-.65c.74-.43,1.2-.93,1.75-1.25,.45-.5,.9-1.01,1.35-1.52,.27-.4,.61-1.08,.69-1.38,.16-.58,.42-.98,.5-1.27,.64-2.33,.93-3.97,1.14-5.32,0-1.71-.26-3.03-1-4.32-.74-1.29-1.75-2.18-3.24-3.03-1.27-.49-2.84-1.06-5.07-1.49-.4-.26-.88-.23-1.28-.49-.48,.03-1.25-.02-1.72,.02-.66,.13-1.33,.27-1.99,.41-.66,.13-1.22,.46-1.96,.89l-1.12,.64s-.09-.06-.13-.09c-.05-.02-.09-.05-.13-.07v-1.29c0-.86,0-1.5-.22-2.15-.21-.64-.42-1.29-.64-1.93-.21-.43-.64-1.07-.85-1.5-.42-.21-.63-.64-1.06-.86-1.48-1.71-2.76-2.79-3.82-3.65-1.49-.86-2.76-1.29-4.25-1.29s-2.76,.43-4.25,1.29c-1.06,.86-2.34,1.93-4.03,3.65-.22,.21-.42,.64-.85,1.07-.21,.22-.64,.86-.85,1.29l-.63,1.93c0,.64-.22,1.29-.22,2.15v1.29c-.42,.21-.85,.43-1.27,.85-.85,.64-1.49,1.29-1.91,2.15-.64,.86-.85,1.71-.85,2.79v24.66c0,1.07,.21,1.93,.64,2.79,.42,.86,1.06,1.5,1.91,2.15,.43,.21,.85,.64,1.49,.86v1.08c0,.16,.01,.31,.02,.46m-100.44-173.89c.13,.08,.25,.17,.39,.25l.93,.54c-.14,.66,.02,1.24,0,1.72,.14,1.06,.37,1.93,.9,2.72,.53,.8,1.17,1.41,2.1,1.95l21.37,12.34c.93,.53,1.78,.78,2.84,.66,.96,.06,1.83-.17,2.81-.58,.58-.15,.99-.41,1.38-.68l1.12,.64c.74,.43,1.41,.57,1.96,.89,.66,.14,1.33,.28,1.99,.41,.48,.03,1.24-.01,1.54-.09,.58-.15,1.07-.12,1.36-.2,2.34-.61,3.9-1.18,5.18-1.67,1.48-.86,2.49-1.75,3.24-3.03,.74-1.29,1.01-2.6,1.01-4.32-.21-1.35-.5-2.99-1.25-5.13,.03-.48-.24-.87-.21-1.35-.26-.4-.61-1.09-.88-1.49-.45-.51-.9-1.01-1.35-1.52-.45-.5-1.01-.82-1.75-1.25l-1.11-.64c0-.05,0-.11,0-.15,0-.05,0-.1,0-.15l1.11-.64c.74-.43,1.3-.75,1.75-1.26,.45-.5,.9-1.01,1.35-1.52,.27-.4,.61-1.08,.88-1.48-.03-.48,.23-.88,.21-1.35,.74-2.15,1.03-3.79,1.24-5.13,0-1.72-.26-3.04-1.01-4.32-.74-1.29-1.75-2.18-3.24-3.04-1.27-.49-2.84-1.06-5.18-1.67-.29-.08-.77-.05-1.35-.2-.29-.08-1.06-.12-1.54-.09-.66,.14-1.32,.27-1.99,.41-.56,.32-1.21,.46-1.96,.89l-1.12,.64c-.4-.26-.8-.52-1.38-.68-.99-.41-1.86-.64-2.81-.58-1.07-.12-1.91,.12-2.85,.66l-21.37,12.33c-.93,.54-1.56,1.15-2.1,1.95-.53,.8-.77,1.67-.9,2.73,.02,.47-.14,1.05,0,1.71l-.93,.54c-.14,.08-.26,.16-.39,.25M164.53,98.01c-.01,.15-.02,.3-.02,.46v1.07c-.64,.21-1.06,.64-1.49,.86-.85,.64-1.49,1.29-1.91,2.14-.42,.86-.64,1.72-.64,2.79v24.66c0,1.07,.21,1.93,.84,2.79,.43,.86,1.06,1.5,1.91,2.15,.42,.43,.85,.64,1.28,.86v1.29c0,.86,.21,1.5,.21,2.14,.21,.64,.43,1.29,.64,1.93,.21,.43,.64,1.07,.85,1.29,.42,.43,.64,.86,.85,1.07,1.7,1.72,2.97,2.79,4.03,3.65,1.48,.85,2.76,1.29,4.24,1.29s2.77-.43,4.25-1.29c1.06-.86,2.34-1.93,3.83-3.65,.43-.21,.64-.64,1.07-.86,.21-.43,.64-1.07,.85-1.5,.21-.64,.42-1.29,.64-1.93,.22-.64,.22-1.29,.22-2.14v-1.29s.09-.05,.13-.07c.04-.03,.09-.06,.13-.08l1.12,.64c.74,.43,1.3,.75,1.96,.89,.66,.13,1.32,.27,1.99,.42,.48,.03,1.25-.02,1.72,.01,.4-.26,.88-.23,1.28-.49,2.23-.43,3.8-1,5.07-1.49,1.48-.86,2.5-1.75,3.24-3.03,.74-1.29,1.01-2.61,1.01-4.32-.21-1.35-.5-2.99-1.14-5.32-.08-.29-.34-.69-.5-1.27-.08-.29-.42-.98-.69-1.38-.45-.5-.9-1.01-1.35-1.51-.56-.32-1.01-.83-1.75-1.26l-1.12-.64c.03-.48,.06-.95-.1-1.53-.13-1.06-.37-1.93-.9-2.73-.42-.98-1.06-1.59-1.99-2.13l-21.37-12.33c-.93-.54-1.78-.78-2.73-.84-.96-.06-1.83,.17-2.82,.58-.4,.26-.98,.41-1.48,.86l-.93-.54c-.14-.08-.27-.15-.41-.21m200.9,.02c-.14,.07-.27,.13-.41,.21l-.93,.54c-.5-.44-1.09-.6-1.48-.86-.99-.42-1.86-.64-2.82-.58-.96,.06-1.8,.3-2.73,.84l-21.38,12.33c-.93,.54-1.56,1.15-1.99,2.13-.53,.8-.77,1.67-.9,2.73-.16,.58-.13,1.06-.1,1.53l-1.12,.64c-.74,.43-1.19,.94-1.75,1.26-.45,.5-.9,1.01-1.35,1.52-.27,.4-.61,1.09-.69,1.38-.15,.58-.42,.98-.5,1.27-.64,2.33-.93,3.97-1.14,5.32,0,1.72,.26,3.04,1.01,4.32,.75,1.29,1.75,2.18,3.24,3.04,1.27,.49,2.84,1.06,5.07,1.49,.4,.26,.88,.23,1.27,.49,.48-.03,1.25,.01,1.72-.01,.67-.14,1.33-.27,1.99-.41,.67-.14,1.22-.46,1.96-.89l1.12-.64s.08,.05,.13,.08c.04,.02,.09,.05,.14,.07v1.29c0,.86,0,1.5,.21,2.14,.21,.64,.42,1.29,.64,1.93,.21,.43,.64,1.08,.85,1.51,.42,.21,.64,.64,1.06,.86,1.49,1.72,2.76,2.79,3.83,3.65,1.49,.86,2.76,1.29,4.25,1.29s2.77-.43,4.25-1.29c1.06-.86,2.34-1.93,4.04-3.65,.21-.21,.42-.64,.85-1.07,.22-.21,.63-.86,.85-1.29,.21-.64,.42-1.29,.64-1.93,0-.64,.21-1.29,.21-2.14v-1.29c.42-.21,.85-.43,1.28-.86,.85-.64,1.48-1.29,1.91-2.14,.64-.86,.85-1.71,.85-2.79v-24.66c0-1.08-.21-1.93-.63-2.79-.43-.86-1.07-1.5-1.91-2.15-.42-.21-.85-.64-1.49-.86v-1.07c0-.16,0-.31-.02-.46"/>
          </g>
        </g>
      </g>
    </g>
  </g>
</svg>